<svg xmlns="http://www.w3.org/2000/svg" xmlns:xlink="http://www.w3.org/1999/xlink" width="884" height="663" viewBox="67.096 -85.928 4239.808 3179.856">
  <metadata><?xpacket begin="﻿" id="W5M0MpCehiHzreSzNTczkc9d"?>
<x:xmpmeta xmlns:x="adobe:ns:meta/" x:xmptk="Adobe XMP Core 5.6-c142 79.160924, 2017/07/13-01:06:39        ">
   <rdf:RDF xmlns:rdf="http://www.w3.org/1999/02/22-rdf-syntax-ns#">
      <rdf:Description rdf:about=""/>
   </rdf:RDF>
</x:xmpmeta>
                                                                                                    
                                                                                                    
                                                                                                    
                                                                                                    
                                                                                                    
                                                                                                    
                                                                                                    
                                                                                                    
                                                                                                    
                                                                                                    
                                                                                                    
                                                                                                    
                                                                                                    
                                                                                                    
                                                                                                    
                                                                                                    
                                                                                                    
                                                                                                    
                                                                                                    
                                                                                                    
                           
<?xpacket end="w"?></metadata>
<defs>
    <style>
      .cls-1, .cls-3 {
        fill: #fff;
      }

      .cls-1, .cls-2, .cls-4 {
        fill-rule: evenodd;
      }

      .cls-2 {
        fill: #c42525;
      }

      .cls-4 {
        fill: #1454b5;
      }
    </style>
    <clipPath id="clip-path">
      <rect width="4374" height="3008"/>
    </clipPath>
  </defs>
  <g clip-path="url(#clip-path)">
    <g id="text_1" data-name="text 1">
      <path id="vData_" data-name="vData = {" class="cls-1" d="M2712.81,524.825c2.14,0,3.51-.193,4.13-0.58a3.987,3.987,0,0,0,.64-6.243,5.967,5.967,0,0,0-4.04-1.1h-10.63a6.034,6.034,0,0,0-4.08,1.1,3.657,3.657,0,0,0-1.21,2.841,3.7,3.7,0,0,0,1.21,2.88,6.028,6.028,0,0,0,4.08,1.1h1.12L2717.29,552h8.27l13.26-27.175h1.32a6.016,6.016,0,0,0,4.07-1.1,3.63,3.63,0,0,0,1.22-2.841,3.677,3.677,0,0,0-1.22-2.88,6.022,6.022,0,0,0-4.07-1.1h-10.87a6.022,6.022,0,0,0-4.07,1.1,3.633,3.633,0,0,0-1.22,2.841,3.815,3.815,0,0,0,1.93,3.441c0.59,0.361,1.95.541,4.06,0.541l-8.54,17.55Zm34.65,20.333a3.986,3.986,0,0,0,0,5.74,6.028,6.028,0,0,0,4.08,1.1h15.93a23.667,23.667,0,0,0,10.01-1.817,23.077,23.077,0,0,0,5.2-3.614,17.92,17.92,0,0,0,4.46-6.34,21.924,21.924,0,0,0,1.7-8.91v-3.788a22.85,22.85,0,0,0-.93-7,25.281,25.281,0,0,0-2.76-5.759,25.025,25.025,0,0,0-3.54-4.562,17.146,17.146,0,0,0-5.93-3.633,20.763,20.763,0,0,0-7.56-1.431l-16.58-.038a6.034,6.034,0,0,0-4.08,1.1,3.986,3.986,0,0,0-.02,5.721,5.482,5.482,0,0,0,3.71,1.141v31A5.161,5.161,0,0,0,2747.46,545.158Zm11.62-32.084h8.35a13.671,13.671,0,0,1,7.01,1.643q2.8,1.643,5.05,6.049a14.4,14.4,0,0,1,1.43,6.572v3.749a14.076,14.076,0,0,1-1.59,7.113,12.258,12.258,0,0,1-4.71,4.522q-2.4,1.355-7.12,1.354h-8.42v-31ZM2832.79,552a6.028,6.028,0,0,0,4.08-1.1,3.663,3.663,0,0,0,1.22-2.841,3.71,3.71,0,0,0-1.22-2.88,6.034,6.034,0,0,0-4.08-1.1h-1.35V527.763a10.465,10.465,0,0,0-4.08-8.717q-4.08-3.189-11.46-3.189a35.749,35.749,0,0,0-5.53.483,54.982,54.982,0,0,0-5.99,1.295,12.854,12.854,0,0,0-2.9,1.063,3.126,3.126,0,0,0-1.08,1.179,3.663,3.663,0,0,0-.39,1.74,4.009,4.009,0,0,0,1.11,2.918,3.581,3.581,0,0,0,2.68,1.141,14.872,14.872,0,0,0,3.25-.5,39.7,39.7,0,0,1,9.12-1.392q4.29,0,5.82,1.121a3.445,3.445,0,0,1,1.53,2.9V529.7a52.187,52.187,0,0,0-8.31-.774q-8.97,0-14.06,4.272-5.07,4.272-5.08,9.258,0,4.1,3.98,7.48a15.463,15.463,0,0,0,10.36,3.382,30.686,30.686,0,0,0,6.54-.792,25.755,25.755,0,0,0,6.57-2.378V552h9.27Zm-9.27-10.785a23.742,23.742,0,0,1-6.44,3.054,22.122,22.122,0,0,1-6.47,1.121,9.521,9.521,0,0,1-5.3-1.276,2.09,2.09,0,0,1-1.04-1.817q0-1.545,2.16-3.053a14.459,14.459,0,0,1,8.31-2.359,46.15,46.15,0,0,1,8.78.928v3.4Zm53.07-16.39a6.028,6.028,0,0,0,4.08-1.1,3.663,3.663,0,0,0,1.22-2.841,3.71,3.71,0,0,0-1.22-2.88,6.034,6.034,0,0,0-4.08-1.1h-14.65v-7.152a6.061,6.061,0,0,0-1.1-4.078,3.969,3.969,0,0,0-5.72,0,6.007,6.007,0,0,0-1.1,4.078V516.9h-2.86a6.034,6.034,0,0,0-4.08,1.1,3.666,3.666,0,0,0-1.22,2.841,3.707,3.707,0,0,0,1.22,2.88,6.028,6.028,0,0,0,4.08,1.1h2.86v17.434a9.957,9.957,0,0,0,3.69,7.827q3.69,3.19,11.07,3.19a36.994,36.994,0,0,0,9.42-1.527q5.58-1.527,7.47-3.344a3.467,3.467,0,0,0,1.24-2.667,3.875,3.875,0,0,0-1.14-2.822,3.633,3.633,0,0,0-2.68-1.16,7.534,7.534,0,0,0-3.1,1,24.551,24.551,0,0,1-11.21,2.59q-4.17,0-5.8-1.275c-0.69-.542-1.04-1.663-1.04-3.364V524.825h14.65ZM2927.81,552a6.028,6.028,0,0,0,4.08-1.1,3.663,3.663,0,0,0,1.22-2.841,3.71,3.71,0,0,0-1.22-2.88,6.034,6.034,0,0,0-4.08-1.1h-1.35V527.763a10.465,10.465,0,0,0-4.08-8.717q-4.08-3.189-11.46-3.189a35.646,35.646,0,0,0-5.53.483,54.477,54.477,0,0,0-5.99,1.295,12.655,12.655,0,0,0-2.9,1.063,2.974,2.974,0,0,0-1.08,1.179,3.663,3.663,0,0,0-.39,1.74,4.044,4.044,0,0,0,1.1,2.918,3.6,3.6,0,0,0,2.69,1.141,15.044,15.044,0,0,0,3.25-.5,39.545,39.545,0,0,1,9.12-1.392q4.29,0,5.82,1.121a3.46,3.46,0,0,1,1.52,2.9V529.7a51.984,51.984,0,0,0-8.31-.774q-8.97,0-14.05,4.272t-5.08,9.258c0,2.732,1.32,5.225,3.98,7.48a15.445,15.445,0,0,0,10.36,3.382,30.6,30.6,0,0,0,6.53-.792,25.482,25.482,0,0,0,6.57-2.378V552h9.28Zm-9.28-10.785a23.677,23.677,0,0,1-6.43,3.054,22.129,22.129,0,0,1-6.48,1.121,9.485,9.485,0,0,1-5.29-1.276,2.1,2.1,0,0,1-1.05-1.817c0-1.03.72-2.048,2.17-3.053a14.459,14.459,0,0,1,8.31-2.359,46.051,46.051,0,0,1,8.77.928v3.4Zm108.95-16.371A3.663,3.663,0,0,0,3028.7,522a3.71,3.71,0,0,0-1.22-2.88,6.034,6.034,0,0,0-4.08-1.1h-33.86a6.07,6.07,0,0,0-4.08,1.1,3.658,3.658,0,0,0-1.21,2.842,3.7,3.7,0,0,0,1.21,2.879,6.064,6.064,0,0,0,4.08,1.1h33.86A6.028,6.028,0,0,0,3027.48,524.844Zm0,14.941a3.648,3.648,0,0,0,1.22-2.861,3.71,3.71,0,0,0-1.22-2.88,6.034,6.034,0,0,0-4.08-1.1h-33.86a6.07,6.07,0,0,0-4.08,1.1,3.7,3.7,0,0,0-1.21,2.88,3.641,3.641,0,0,0,1.21,2.861,6.148,6.148,0,0,0,4.08,1.082h33.86A6.112,6.112,0,0,0,3027.48,539.785Zm77.43-10.031a12.633,12.633,0,0,0,.52-4.117v-12.6a3.565,3.565,0,0,1,.7-2.4,3.118,3.118,0,0,1,2.09-.695,4.06,4.06,0,0,0,2.7-1.276,3.807,3.807,0,0,0,1.04-2.706,3.868,3.868,0,0,0-1.17-2.86,4.156,4.156,0,0,0-3.04-1.16,9.8,9.8,0,0,0-7.15,3.112,10.1,10.1,0,0,0-3.09,7.364v13.22a3.633,3.633,0,0,1-.66,2.4,3.533,3.533,0,0,1-2.18.716,4.232,4.232,0,0,0-2.75,1.256,3.99,3.99,0,0,0-.95,2.783,3.936,3.936,0,0,0,.95,2.745,4.2,4.2,0,0,0,2.73,1.256,3.759,3.759,0,0,1,2.32.831,3.562,3.562,0,0,1,.54,2.281v13.954a9.417,9.417,0,0,0,1.12,4.678A11.648,11.648,0,0,0,3102.8,563a9.909,9.909,0,0,0,4.99,1.373,4.114,4.114,0,0,0,3-1.16,4.11,4.11,0,0,0,.13-5.605,3.932,3.932,0,0,0-2.67-1.256,3.289,3.289,0,0,1-2.22-.812,3.393,3.393,0,0,1-.6-2.261v-12.6a16.683,16.683,0,0,0-.5-4.813,9.466,9.466,0,0,0-1.89-3.073A10.078,10.078,0,0,0,3104.91,529.754Z"/>
      <path id="name:_Deepak_Rawat_red" data-name="name: ‘Deepak Rawat’ , red" class="cls-2" d="M2799.31,606.748a5.731,5.731,0,0,0-3.87,1.044,3.458,3.458,0,0,0-1.15,2.691,3.565,3.565,0,0,0,1.13,2.71,5.012,5.012,0,0,0,3.52,1.062v18.238a8.254,8.254,0,0,0-3.77.549,3.6,3.6,0,0,0-1.76,3.186,3.5,3.5,0,0,0,1.15,2.728,5.731,5.731,0,0,0,3.87,1.044h8.53a5.7,5.7,0,0,0,3.86-1.044,3.466,3.466,0,0,0,1.16-2.691,3.548,3.548,0,0,0-1.8-3.223,8.02,8.02,0,0,0-3.73-.549V618.54a20.234,20.234,0,0,1,4.96-4.266,9.8,9.8,0,0,1,4.56-1.007,7.808,7.808,0,0,1,5.16,1.464,4.489,4.489,0,0,1,1.32,3.589v14.173a5.08,5.08,0,0,0-3.52,1.043,3.791,3.791,0,0,0,.02,5.42,5.731,5.731,0,0,0,3.87,1.044h6.77a5.683,5.683,0,0,0,3.86-1.044,3.466,3.466,0,0,0,1.16-2.691,3.528,3.528,0,0,0-1.14-2.729,5.051,5.051,0,0,0-3.51-1.043V618.54a12.166,12.166,0,0,0-3.08-8.643q-3.885-4.137-10.55-4.138a15.919,15.919,0,0,0-5.36.879,14.116,14.116,0,0,0-4.52,2.637v-2.527h-7.14ZM2875.35,640a5.718,5.718,0,0,0,3.86-1.044,3.466,3.466,0,0,0,1.16-2.691,3.51,3.51,0,0,0-1.16-2.729,5.724,5.724,0,0,0-3.86-1.043h-1.28V617.039a9.909,9.909,0,0,0-3.87-8.258q-3.855-3.023-10.86-3.022a33.776,33.776,0,0,0-5.23.458,51.884,51.884,0,0,0-5.68,1.227,11.834,11.834,0,0,0-2.74,1.007,2.89,2.89,0,0,0-1.03,1.117,3.543,3.543,0,0,0-.37,1.648,3.8,3.8,0,0,0,1.05,2.765,3.386,3.386,0,0,0,2.54,1.08,14.154,14.154,0,0,0,3.08-.476,37.561,37.561,0,0,1,8.64-1.318q4.065,0,5.51,1.062a3.254,3.254,0,0,1,1.45,2.746v1.795a49.4,49.4,0,0,0-7.87-.733q-8.505,0-13.32,4.047t-4.81,8.771q0,3.882,3.77,7.086a14.631,14.631,0,0,0,9.81,3.2,28.987,28.987,0,0,0,6.19-.751,24.293,24.293,0,0,0,6.23-2.252V640h8.79Zm-8.79-10.217a22.529,22.529,0,0,1-6.1,2.893,20.965,20.965,0,0,1-6.13,1.062,9.017,9.017,0,0,1-5.02-1.209,1.991,1.991,0,0,1-.99-1.721c0-.976.69-1.941,2.05-2.893a13.707,13.707,0,0,1,7.88-2.234,43.565,43.565,0,0,1,8.31.879v3.223Zm20.27-23.035a5.731,5.731,0,0,0-3.87,1.044,3.491,3.491,0,0,0-1.15,2.691,3.539,3.539,0,0,0,1.14,2.71,4.968,4.968,0,0,0,3.51,1.062v18.238a5.034,5.034,0,0,0-3.51,1.043,3.484,3.484,0,0,0-1.14,2.692,3.533,3.533,0,0,0,1.15,2.728,5.731,5.731,0,0,0,3.87,1.044h6.77a5.731,5.731,0,0,0,3.87-1.044,3.458,3.458,0,0,0,1.15-2.691,3.514,3.514,0,0,0-1.15-2.71,5.029,5.029,0,0,0-3.5-1.062V617.368a13.294,13.294,0,0,1,3.08-3.277,4.743,4.743,0,0,1,2.6-.824,2.533,2.533,0,0,1,1.92.677,3.406,3.406,0,0,1,.64,2.362V640h7.14a5.653,5.653,0,0,0,3.85-1.044,3.509,3.509,0,0,0,1.13-2.691,3.567,3.567,0,0,0-1.13-2.71,4.957,4.957,0,0,0-3.48-1.062V617.368a16.068,16.068,0,0,1,3.29-3.442,4.3,4.3,0,0,1,2.31-.659,2.49,2.49,0,0,1,1.9.659,3.451,3.451,0,0,1,.63,2.38V640h7.14a5.623,5.623,0,0,0,3.84-1.044,3.483,3.483,0,0,0,1.14-2.691,3.54,3.54,0,0,0-1.14-2.71,4.923,4.923,0,0,0-3.48-1.062V615.684a9.594,9.594,0,0,0-3.44-7.691,10.018,10.018,0,0,0-6.77-2.234,11.036,11.036,0,0,0-4.09.788,14.5,14.5,0,0,0-3.93,2.4,11.737,11.737,0,0,0-3.15-2.417,7.251,7.251,0,0,0-3.26-.805,8.185,8.185,0,0,0-3.43.677,12.334,12.334,0,0,0-3.31,2.472v-2.124h-7.14ZM2970.16,624a16.531,16.531,0,0,0-1.17-6.446,21.973,21.973,0,0,0-4.36-6.7,17.845,17.845,0,0,0-5.7-3.479,21.426,21.426,0,0,0-8.4-1.612,20.2,20.2,0,0,0-13.46,4.962,16.112,16.112,0,0,0-5.84,12.873,16.534,16.534,0,0,0,5.4,12.524q5.4,5.091,14.41,5.09a51.816,51.816,0,0,0,10.92-1.226q5.67-1.227,7.14-2.582a3.289,3.289,0,0,0,1.1-2.49,3.716,3.716,0,0,0-1.03-2.674,3.38,3.38,0,0,0-2.53-1.062,19.174,19.174,0,0,0-3.95.733,46.752,46.752,0,0,1-11.1,1.794,15.609,15.609,0,0,1-8.07-1.794,9.635,9.635,0,0,1-4.16-4.724h30.8V624Zm-30.58-4.322a11.992,11.992,0,0,1,4.54-4.815,14.51,14.51,0,0,1,13.22,0,11.732,11.732,0,0,1,4.51,4.815h-22.27Zm61.65-11.462a6.715,6.715,0,0,0-8.28,0,4.956,4.956,0,0,0,0,7.1,6.712,6.712,0,0,0,8.28,0A4.956,4.956,0,0,0,3001.23,608.213Zm0.07,24.573a6.7,6.7,0,0,0-8.27,0,4.956,4.956,0,0,0,0,7.1,6.7,6.7,0,0,0,8.27,0A4.933,4.933,0,0,0,3001.3,632.786Zm94.23-18.311a2.781,2.781,0,0,0,2.42,1.795,2.348,2.348,0,0,0,1.63-.623,1.855,1.855,0,0,0,.67-1.392,5.271,5.271,0,0,0-.29-1.5l-5.16-18.64h-10.04Zm18.53,19.043a3.767,3.767,0,0,0,0,5.438,5.718,5.718,0,0,0,3.86,1.044h15.09a22.38,22.38,0,0,0,9.48-1.721,21.752,21.752,0,0,0,4.93-3.424,16.9,16.9,0,0,0,4.23-6.006,20.937,20.937,0,0,0,1.61-8.441v-3.589a21.568,21.568,0,0,0-.88-6.629,27.247,27.247,0,0,0-5.97-9.777,16.258,16.258,0,0,0-5.62-3.443,19.67,19.67,0,0,0-7.16-1.355l-15.71-.036a5.724,5.724,0,0,0-3.86,1.043,3.768,3.768,0,0,0-.02,5.42,5.2,5.2,0,0,0,3.52,1.081v29.37A4.9,4.9,0,0,0,3114.06,633.518Zm11-30.395h7.91a12.991,12.991,0,0,1,6.65,1.556,13.488,13.488,0,0,1,4.78,5.731,13.643,13.643,0,0,1,1.35,6.226v3.552a13.379,13.379,0,0,1-1.5,6.738,11.616,11.616,0,0,1-4.47,4.285,14,14,0,0,1-6.73,1.282h-7.99v-29.37ZM3198.95,624a16.528,16.528,0,0,0-1.18-6.446,21.952,21.952,0,0,0-4.35-6.7,17.959,17.959,0,0,0-5.7-3.479,21.426,21.426,0,0,0-8.4-1.612,20.177,20.177,0,0,0-13.46,4.962,16.082,16.082,0,0,0-5.84,12.873,16.534,16.534,0,0,0,5.4,12.524q5.4,5.091,14.41,5.09a51.653,51.653,0,0,0,10.91-1.226q5.685-1.227,7.14-2.582a3.255,3.255,0,0,0,1.1-2.49,3.708,3.708,0,0,0-1.02-2.674,3.4,3.4,0,0,0-2.53-1.062,19.347,19.347,0,0,0-3.96.733,46.683,46.683,0,0,1-11.09,1.794,15.623,15.623,0,0,1-8.08-1.794,9.614,9.614,0,0,1-4.15-4.724h30.8V624Zm-30.58-4.322a11.926,11.926,0,0,1,4.54-4.815,14.51,14.51,0,0,1,13.22,0,11.776,11.776,0,0,1,4.5,4.815h-22.26ZM3244.7,624a16.531,16.531,0,0,0-1.17-6.446,21.973,21.973,0,0,0-4.36-6.7,17.782,17.782,0,0,0-5.69-3.479,21.441,21.441,0,0,0-8.41-1.612,20.171,20.171,0,0,0-13.45,4.962,16.09,16.09,0,0,0-5.85,12.873,16.508,16.508,0,0,0,5.41,12.524q5.4,5.091,14.41,5.09a51.653,51.653,0,0,0,10.91-1.226q5.67-1.227,7.14-2.582a3.289,3.289,0,0,0,1.1-2.49,3.675,3.675,0,0,0-1.03-2.674,3.359,3.359,0,0,0-2.52-1.062,19.233,19.233,0,0,0-3.96.733,46.683,46.683,0,0,1-11.09,1.794,15.623,15.623,0,0,1-8.08-1.794,9.684,9.684,0,0,1-4.16-4.724h30.8V624Zm-30.58-4.322a12.014,12.014,0,0,1,4.55-4.815,14.51,14.51,0,0,1,13.22,0,11.776,11.776,0,0,1,4.5,4.815h-22.27Zm53.78,18.714a19.87,19.87,0,0,0,5.71.842,19.506,19.506,0,0,0,12.05-4.028q6.4-4.834,6.41-12.268a16.181,16.181,0,0,0-5.42-11.957,18.2,18.2,0,0,0-13.11-5.219,19.232,19.232,0,0,0-5.78.879,20.471,20.471,0,0,0-5.46,2.674v-2.564h-8.79a5.683,5.683,0,0,0-3.86,1.044,3.466,3.466,0,0,0-1.16,2.691,3.508,3.508,0,0,0,1.16,2.729,5.689,5.689,0,0,0,3.86,1.043h1.28v33.912h-1.28a5.76,5.76,0,0,0-3.85,1.043,3.734,3.734,0,0,0-.01,5.42,5.683,5.683,0,0,0,3.86,1.044h13.29a5.731,5.731,0,0,0,3.87-1.044,3.458,3.458,0,0,0,1.15-2.692,3.5,3.5,0,0,0-1.15-2.728,5.731,5.731,0,0,0-3.87-1.043h-4.5V635.862A24.109,24.109,0,0,0,3267.9,638.389Zm13.48-9.485a12.555,12.555,0,0,1-15.88-.019q-3.2-2.836-3.2-5.841a9.209,9.209,0,0,1,2.23-5.566,10.721,10.721,0,0,1,8.9-4.211,11.11,11.11,0,0,1,6.06,1.629,10.422,10.422,0,0,1,3.83,4.065,9.357,9.357,0,0,1,1.24,4.01Q3284.56,626.085,3281.38,628.9Zm51.54,11.1a5.731,5.731,0,0,0,3.87-1.044,3.491,3.491,0,0,0,1.15-2.691,3.535,3.535,0,0,0-1.15-2.729,5.736,5.736,0,0,0-3.87-1.043h-1.28V617.039a9.928,9.928,0,0,0-3.86-8.258q-3.87-3.023-10.86-3.022a33.9,33.9,0,0,0-5.24.458,51.209,51.209,0,0,0-5.67,1.227,11.972,11.972,0,0,0-2.75,1.007,2.967,2.967,0,0,0-1.03,1.117,3.542,3.542,0,0,0-.36,1.648,3.8,3.8,0,0,0,1.04,2.765,3.408,3.408,0,0,0,2.55,1.08,14.082,14.082,0,0,0,3.07-.476,37.561,37.561,0,0,1,8.64-1.318q4.065,0,5.52,1.062a3.269,3.269,0,0,1,1.44,2.746v1.795a49.4,49.4,0,0,0-7.87-.733q-8.505,0-13.31,4.047t-4.82,8.771q0,3.882,3.77,7.086a14.659,14.659,0,0,0,9.82,3.2,29.061,29.061,0,0,0,6.19-.751,24.22,24.22,0,0,0,6.22-2.252V640h8.79Zm-8.79-10.217a22.464,22.464,0,0,1-6.09,2.893,21.026,21.026,0,0,1-6.14,1.062,9.039,9.039,0,0,1-5.02-1.209,1.981,1.981,0,0,1-.98-1.721c0-.976.68-1.941,2.05-2.893a13.674,13.674,0,0,1,7.87-2.234,43.565,43.565,0,0,1,8.31.879v3.223Zm34.22-3.406,7.95,7.031a4.233,4.233,0,0,0-1.24,2.82,3.5,3.5,0,0,0,1.15,2.728,5.718,5.718,0,0,0,3.86,1.044h8.65a5.718,5.718,0,0,0,3.86-1.044,3.458,3.458,0,0,0,1.15-2.691,3.5,3.5,0,0,0-1.15-2.729,5.724,5.724,0,0,0-3.86-1.043h-2.2l-12.27-10.84,9.12-7.4h2.09a5.724,5.724,0,0,0,3.86-1.043,3.458,3.458,0,0,0,1.15-2.692,3.5,3.5,0,0,0-1.15-2.728,5.718,5.718,0,0,0-3.86-1.044h-8.57a5.653,5.653,0,0,0-3.85,1.044,3.518,3.518,0,0,0-1.13,2.728,5.5,5.5,0,0,0,.91,2.563l-5.86,4.725V592.5h-8.79a5.718,5.718,0,0,0-3.86,1.044,3.458,3.458,0,0,0-1.15,2.692,3.5,3.5,0,0,0,1.15,2.728,5.718,5.718,0,0,0,3.86,1.044h1.29v32.483h-1.29a5.717,5.717,0,0,0-3.84,1.043,3.442,3.442,0,0,0-1.17,2.692,3.5,3.5,0,0,0,1.15,2.728,5.718,5.718,0,0,0,3.86,1.044h8.79V627.512Zm95.99-3.333q6,2.857,15.12,16.956h4.29a5.641,5.641,0,0,0,3.84-1.044,3.483,3.483,0,0,0,1.14-2.691,3.648,3.648,0,0,0-1.65-3.186,7.951,7.951,0,0,0-3.77-.586q-2.865-4.431-4.54-6.519a47.733,47.733,0,0,0-5.1-5.347,17.7,17.7,0,0,0,6.19-5.108,10.733,10.733,0,0,0,2.05-6.391,12.394,12.394,0,0,0-4.37-9.576q-4.38-3.936-12.32-3.937l-17-.036a5.724,5.724,0,0,0-3.86,1.043,3.812,3.812,0,0,0,0,5.457,5.718,5.718,0,0,0,3.86,1.044h1.18v29.37h-1.18a5.717,5.717,0,0,0-3.84,1.043,3.442,3.442,0,0,0-1.17,2.692,3.5,3.5,0,0,0,1.15,2.728,5.718,5.718,0,0,0,3.86,1.044h11.39a5.731,5.731,0,0,0,3.87-1.044,3.458,3.458,0,0,0,1.15-2.691,3.5,3.5,0,0,0-1.15-2.729,5.736,5.736,0,0,0-3.87-1.043h-2.71v-9.449h7.44Zm-7.44-19.921h8.61q4.35,0,6.63,1.812a5.1,5.1,0,0,1,2.27,3.937,4.631,4.631,0,0,1-1.19,2.893,11.241,11.241,0,0,1-4.64,2.783,16.032,16.032,0,0,1-5.82.989h-5.86V603.123ZM3515.95,640a5.683,5.683,0,0,0,3.86-1.044,3.466,3.466,0,0,0,1.16-2.691,3.51,3.51,0,0,0-1.16-2.729,5.689,5.689,0,0,0-3.86-1.043h-1.28V617.039a9.928,9.928,0,0,0-3.86-8.258q-3.87-3.023-10.86-3.022a33.794,33.794,0,0,0-5.24.458,51.884,51.884,0,0,0-5.68,1.227,12.029,12.029,0,0,0-2.74,1.007,2.967,2.967,0,0,0-1.03,1.117,3.542,3.542,0,0,0-.36,1.648,3.8,3.8,0,0,0,1.04,2.765,3.408,3.408,0,0,0,2.55,1.08,14.082,14.082,0,0,0,3.07-.476,37.561,37.561,0,0,1,8.64-1.318q4.065,0,5.52,1.062a3.269,3.269,0,0,1,1.44,2.746v1.795a49.4,49.4,0,0,0-7.87-.733q-8.505,0-13.31,4.047t-4.82,8.771q0,3.882,3.77,7.086a14.659,14.659,0,0,0,9.82,3.2,29.061,29.061,0,0,0,6.19-.751,24.22,24.22,0,0,0,6.22-2.252V640h8.79Zm-8.79-10.217a22.388,22.388,0,0,1-6.1,2.893,20.911,20.911,0,0,1-6.13,1.062,9.039,9.039,0,0,1-5.02-1.209,1.991,1.991,0,0,1-.99-1.721c0-.976.69-1.941,2.06-2.893a13.674,13.674,0,0,1,7.87-2.234,43.565,43.565,0,0,1,8.31.879v3.223ZM3551.71,640h6.96l6.15-25.745a4.47,4.47,0,0,0,2.99-1.19,3.776,3.776,0,0,0-.15-5.273,5.718,5.718,0,0,0-3.86-1.044h-7.07a5.731,5.731,0,0,0-3.87,1.044,3.491,3.491,0,0,0-1.15,2.691,3.625,3.625,0,0,0,1.76,3.223,7.892,7.892,0,0,0,3.66.549l-2.93,11.9-4.69-12.2h-6.66l-4.65,12.2-2.86-11.9c1.93,0,3.22-.293,3.88-0.879a3.678,3.678,0,0,0,1.32-2.856,3.5,3.5,0,0,0-1.15-2.728,5.731,5.731,0,0,0-3.87-1.044h-6.99a5.7,5.7,0,0,0-3.86,1.044,3.466,3.466,0,0,0-1.16,2.691,3.542,3.542,0,0,0,1.05,2.619,4.531,4.531,0,0,0,3.09,1.153l6.3,25.745h7.07l5.2-13.843Zm55.76,0a5.718,5.718,0,0,0,3.86-1.044,3.458,3.458,0,0,0,1.15-2.691,3.5,3.5,0,0,0-1.15-2.729,5.724,5.724,0,0,0-3.86-1.043h-1.29V617.039a9.9,9.9,0,0,0-3.86-8.258c-2.58-2.015-6.19-3.022-10.86-3.022a33.674,33.674,0,0,0-5.23.458,51.385,51.385,0,0,0-5.68,1.227,12.17,12.17,0,0,0-2.75,1.007,2.864,2.864,0,0,0-1.02,1.117,3.424,3.424,0,0,0-.37,1.648,3.837,3.837,0,0,0,1.04,2.765,3.424,3.424,0,0,0,2.55,1.08,14.154,14.154,0,0,0,3.08-.476,37.561,37.561,0,0,1,8.64-1.318q4.065,0,5.51,1.062a3.278,3.278,0,0,1,1.45,2.746v1.795a49.518,49.518,0,0,0-7.88-.733q-8.49,0-13.31,4.047t-4.81,8.771c0,2.588,1.25,4.95,3.77,7.086a14.613,14.613,0,0,0,9.81,3.2,28.987,28.987,0,0,0,6.19-.751,24.293,24.293,0,0,0,6.23-2.252V640h8.79Zm-8.79-10.217a22.672,22.672,0,0,1-6.1,2.893,20.965,20.965,0,0,1-6.13,1.062,9.017,9.017,0,0,1-5.02-1.209,1.991,1.991,0,0,1-.99-1.721c0-.976.68-1.941,2.05-2.893a13.7,13.7,0,0,1,7.87-2.234,43.745,43.745,0,0,1,8.32.879v3.223Zm51.03-15.528a5.724,5.724,0,0,0,3.86-1.043,3.458,3.458,0,0,0,1.15-2.692,3.5,3.5,0,0,0-1.15-2.728,5.718,5.718,0,0,0-3.86-1.044h-13.88v-6.775a5.692,5.692,0,0,0-1.05-3.863,3.451,3.451,0,0,0-2.69-1.154,3.521,3.521,0,0,0-2.73,1.154,5.749,5.749,0,0,0-1.04,3.863v6.775h-2.71a5.7,5.7,0,0,0-3.86,1.044,3.466,3.466,0,0,0-1.16,2.691,3.508,3.508,0,0,0,1.16,2.729,5.706,5.706,0,0,0,3.86,1.043h2.71v16.516a9.44,9.44,0,0,0,3.5,7.416q3.495,3.021,10.49,3.021a34.939,34.939,0,0,0,8.92-1.446c3.52-.964,5.89-2.02,7.08-3.168a3.312,3.312,0,0,0,1.18-2.527,3.68,3.68,0,0,0-1.09-2.673,3.439,3.439,0,0,0-2.54-1.1,7.071,7.071,0,0,0-2.93.953,23.3,23.3,0,0,1-10.62,2.453q-3.96,0-5.49-1.208-0.99-.769-0.99-3.186V614.255h13.88Zm22.32-1.5a6.252,6.252,0,0,0-.26,1.5,1.868,1.868,0,0,0,.68,1.392,2.313,2.313,0,0,0,1.63.623,2.776,2.776,0,0,0,2.38-1.795l10.8-20.361h-10.03Zm95.94,35.779a6.136,6.136,0,0,0-.25,1.5,1.857,1.857,0,0,0,.67,1.392,2.347,2.347,0,0,0,1.63.622,2.754,2.754,0,0,0,2.38-1.794l10.81-20.361h-10.04Z"/>
      <path id="email:_..._" data-name="email: ‘...’" class="cls-1" d="M2832.1,716.107a17.505,17.505,0,0,0-1.24-6.8,23.061,23.061,0,0,0-4.6-7.074,18.854,18.854,0,0,0-6.01-3.672,22.619,22.619,0,0,0-8.87-1.7,21.309,21.309,0,0,0-14.21,5.238,16.989,16.989,0,0,0-6.16,13.587,17.452,17.452,0,0,0,5.7,13.22q5.7,5.374,15.21,5.373a54.618,54.618,0,0,0,11.52-1.294q5.985-1.294,7.54-2.726a3.471,3.471,0,0,0,1.16-2.628,3.913,3.913,0,0,0-1.09-2.822,3.555,3.555,0,0,0-2.66-1.121,20.236,20.236,0,0,0-4.18.773,49.266,49.266,0,0,1-11.71,1.894,16.536,16.536,0,0,1-8.53-1.894,10.13,10.13,0,0,1-4.38-4.987h32.51v-3.363Zm-32.28-4.561a12.643,12.643,0,0,1,4.79-5.083,15.324,15.324,0,0,1,13.96,0,12.361,12.361,0,0,1,4.75,5.083h-23.5Zm40.12-13.645a6.022,6.022,0,0,0-4.07,1.1,3.633,3.633,0,0,0-1.22,2.842,3.742,3.742,0,0,0,1.2,2.86,5.254,5.254,0,0,0,3.71,1.121v19.251a5.321,5.321,0,0,0-3.71,1.1,3.986,3.986,0,0,0,.02,5.721,6.016,6.016,0,0,0,4.07,1.1h7.16a6.016,6.016,0,0,0,4.07-1.1,3.63,3.63,0,0,0,1.22-2.841,3.692,3.692,0,0,0-1.22-2.861,5.287,5.287,0,0,0-3.69-1.12V709.111a14.068,14.068,0,0,1,3.25-3.46,5.026,5.026,0,0,1,2.74-.87,2.657,2.657,0,0,1,2.03.715,3.618,3.618,0,0,1,.68,2.494V733h7.54a5.968,5.968,0,0,0,4.06-1.1,3.706,3.706,0,0,0,1.19-2.841,3.771,3.771,0,0,0-1.19-2.861,5.242,5.242,0,0,0-3.68-1.12V709.111a17.186,17.186,0,0,1,3.48-3.634,4.544,4.544,0,0,1,2.44-.7,2.648,2.648,0,0,1,2.01.7,3.666,3.666,0,0,1,.66,2.513V733h7.53a5.951,5.951,0,0,0,4.06-1.1,3.68,3.68,0,0,0,1.2-2.841,3.744,3.744,0,0,0-1.2-2.861,5.215,5.215,0,0,0-3.67-1.12V707.333a10.149,10.149,0,0,0-3.63-8.118,10.608,10.608,0,0,0-7.16-2.358,11.707,11.707,0,0,0-4.31.831,15.365,15.365,0,0,0-4.15,2.532,12.112,12.112,0,0,0-3.33-2.551,7.608,7.608,0,0,0-3.44-.851,8.615,8.615,0,0,0-3.61.715,13.159,13.159,0,0,0-3.5,2.61V697.9h-7.54Zm83.69,35.1a6.028,6.028,0,0,0,4.08-1.1,3.663,3.663,0,0,0,1.22-2.841,3.71,3.71,0,0,0-1.22-2.88,6.034,6.034,0,0,0-4.08-1.1h-1.35V708.763a10.465,10.465,0,0,0-4.08-8.717q-4.08-3.189-11.46-3.189a35.749,35.749,0,0,0-5.53.483,54.982,54.982,0,0,0-5.99,1.295,12.854,12.854,0,0,0-2.9,1.063,3.126,3.126,0,0,0-1.08,1.179,3.663,3.663,0,0,0-.39,1.74,4.044,4.044,0,0,0,1.1,2.918,3.6,3.6,0,0,0,2.69,1.14,14.944,14.944,0,0,0,3.25-.5,39.7,39.7,0,0,1,9.12-1.392q4.29,0,5.82,1.121a3.445,3.445,0,0,1,1.53,2.9V710.7a52.187,52.187,0,0,0-8.32-.773q-8.955,0-14.05,4.271t-5.08,9.258q0,4.1,3.98,7.48a15.468,15.468,0,0,0,10.36,3.382,30.525,30.525,0,0,0,6.53-.792,25.728,25.728,0,0,0,6.58-2.378V733h9.27Zm-9.27-10.785a23.884,23.884,0,0,1-6.44,3.054,22.162,22.162,0,0,1-6.48,1.121,9.508,9.508,0,0,1-5.29-1.276,2.09,2.09,0,0,1-1.04-1.817q0-1.545,2.16-3.054a14.465,14.465,0,0,1,8.31-2.357,46.144,46.144,0,0,1,8.78.927v3.4Zm33.78-39.351v8.388h9.43v-8.388h-9.43Zm-3.79,15.037a6.07,6.07,0,0,0-4.08,1.1,3.964,3.964,0,0,0,.02,5.721,6.057,6.057,0,0,0,4.06,1.1h6.38v19.251h-9.51a6.052,6.052,0,0,0-4.08,1.1,3.657,3.657,0,0,0-1.21,2.841,3.7,3.7,0,0,0,1.21,2.88,6.046,6.046,0,0,0,4.08,1.1h26.94a6.028,6.028,0,0,0,4.08-1.1,3.663,3.663,0,0,0,1.22-2.841,3.71,3.71,0,0,0-1.22-2.88,6.034,6.034,0,0,0-4.08-1.1h-9.5V697.9h-14.31Zm47.55-15.037a6.034,6.034,0,0,0-4.08,1.1,3.941,3.941,0,0,0,.02,5.721,6.039,6.039,0,0,0,4.06,1.1h6.38v34.288h-9.51a6.034,6.034,0,0,0-4.08,1.1,3.666,3.666,0,0,0-1.22,2.841,3.707,3.707,0,0,0,1.22,2.88,6.028,6.028,0,0,0,4.08,1.1h26.94a6.028,6.028,0,0,0,4.08-1.1,3.663,3.663,0,0,0,1.22-2.841,3.71,3.71,0,0,0-1.22-2.88,6.034,6.034,0,0,0-4.08-1.1h-9.51V682.864h-14.3Zm62.23,16.583a7.071,7.071,0,0,0-8.73,0,5.216,5.216,0,0,0,0,7.5,7.071,7.071,0,0,0,8.73,0A5.216,5.216,0,0,0,3054.13,699.447Zm0.08,25.938a7.071,7.071,0,0,0-8.73,0,5.216,5.216,0,0,0,0,7.5,7.075,7.075,0,0,0,8.73,0A5.216,5.216,0,0,0,3054.21,725.385Zm97.88-19.328a2.94,2.94,0,0,0,2.55,1.894,2.458,2.458,0,0,0,1.72-.657,1.945,1.945,0,0,0,.71-1.469,5.941,5.941,0,0,0-.3-1.585l-5.46-19.676h-10.59Zm44.64,19.212a7.071,7.071,0,0,0-8.73,0,5.216,5.216,0,0,0,0,7.5,7.075,7.075,0,0,0,8.73,0A5.216,5.216,0,0,0,3196.73,725.269Zm47.51,0a7.071,7.071,0,0,0-8.73,0,5.216,5.216,0,0,0,0,7.5,7.075,7.075,0,0,0,8.73,0A5.216,5.216,0,0,0,3244.24,725.269Zm47.51,0a7.086,7.086,0,0,0-8.74,0,5.239,5.239,0,0,0,0,7.5,7.09,7.09,0,0,0,8.74,0A5.216,5.216,0,0,0,3291.75,725.269Zm31-21.029a6.535,6.535,0,0,0-.27,1.585,1.957,1.957,0,0,0,.72,1.469,2.441,2.441,0,0,0,1.72.657,2.924,2.924,0,0,0,2.51-1.894l11.4-21.493h-10.59Z"/>
      <path id="oldVData_newVData" data-name="oldVData === newVData" class="cls-1" d="M2742.15,2062.63a21.378,21.378,0,0,0-8.75-8.37,24.933,24.933,0,0,0-23.99-.07,22.076,22.076,0,0,0-11.79,19.16,19.77,19.77,0,0,0,2.99,10.38,20.779,20.779,0,0,0,8.73,7.86,26.425,26.425,0,0,0,24.11-.04,20.646,20.646,0,0,0,8.72-7.88,19.763,19.763,0,0,0,2.93-10.23A21.813,21.813,0,0,0,2742.15,2062.63Zm-10.43,18.93a16.219,16.219,0,0,1-20.72,0q-4.215-3.735-4.21-8.03a12.427,12.427,0,0,1,4.16-9.22,15.523,15.523,0,0,1,21.8,1.03,12.263,12.263,0,0,1,3.18,8.15Q2735.93,2077.825,2731.72,2081.56Zm33.5-46.61c-2.21,0-3.78.42-4.72,1.27a4.579,4.579,0,0,0,.02,6.63c0.96,0.85,2.52,1.27,4.7,1.27h7.39v39.7H2761.6c-2.21,0-3.78.43-4.72,1.28a4.59,4.59,0,0,0,0,6.62c0.94,0.85,2.51,1.28,4.72,1.28h31.19q3.315,0,4.73-1.28a4.223,4.223,0,0,0,1.41-3.29,4.278,4.278,0,0,0-1.41-3.33q-1.41-1.275-4.73-1.28h-11.01v-48.87h-16.56Zm78.22,0c-2.21,0-3.78.42-4.72,1.27a4.3,4.3,0,0,0-1.41,3.34,4.238,4.238,0,0,0,1.41,3.29c0.94,0.85,2.51,1.27,4.72,1.27h1.57v11.42a27.647,27.647,0,0,0-6.81-3.29,23.1,23.1,0,0,0-7.03-1.1,22.029,22.029,0,0,0-16.15,6.58,21.569,21.569,0,0,0-6.63,15.89,19.667,19.667,0,0,0,6.31,14.88q6.315,5.985,16.65,5.98a26.615,26.615,0,0,0,13.66-3.72V2093h10.74q3.315,0,4.72-1.28a4.568,4.568,0,0,0-.02-6.62c-0.96-.85-2.52-1.28-4.7-1.28h-1.57v-48.87h-10.74Zm-2.06,47.11q-3.63,3.24-10.12,3.24-6.525,0-10.11-3.24a10.707,10.707,0,0,1-3.58-8.31,12.889,12.889,0,0,1,3.98-9.49,14.022,14.022,0,0,1,19.47,0,13.027,13.027,0,0,1,3.99,9.63A10.506,10.506,0,0,1,2841.38,2082.06Zm34.44-34.13h2.15c2.21,0,3.77-.43,4.7-1.28a4.331,4.331,0,0,0,1.39-3.33,4.208,4.208,0,0,0-1.41-3.31q-1.41-1.26-4.68-1.26l-12.4-.04c-2.21,0-3.78.42-4.72,1.27a4.3,4.3,0,0,0-1.41,3.34,4.382,4.382,0,0,0,2.15,3.89c0.68,0.48,2.1.72,4.25,0.72l18.8,45.07h8.82l18.84-45.07c2.12,0,3.52-.24,4.21-0.72a4.45,4.45,0,0,0,2.15-3.89,4.208,4.208,0,0,0-1.41-3.31c-0.94-.84-2.52-1.26-4.73-1.26l-12.31-.04c-2.2,0-3.78.42-4.72,1.27a4.649,4.649,0,0,0,0,6.67c0.94,0.85,2.52,1.28,4.72,1.28h2.11l-13.29,31.69Zm44.36,37.15a4.614,4.614,0,0,0,0,6.64c0.94,0.85,2.51,1.28,4.72,1.28h18.44a27.422,27.422,0,0,0,11.59-2.1,26.413,26.413,0,0,0,6.02-4.19,20.611,20.611,0,0,0,5.17-7.34,25.568,25.568,0,0,0,1.97-10.32v-4.38a26.631,26.631,0,0,0-1.07-8.1,29.823,29.823,0,0,0-3.2-6.67,29.52,29.52,0,0,0-4.1-5.28,19.718,19.718,0,0,0-6.87-4.21,23.925,23.925,0,0,0-8.75-1.66l-19.2-.04c-2.21,0-3.78.42-4.72,1.27a4.636,4.636,0,0,0-.03,6.63,6.36,6.36,0,0,0,4.3,1.32v35.89A6,6,0,0,0,2920.18,2085.08Zm13.45-37.15h9.66a15.855,15.855,0,0,1,8.13,1.9q3.24,1.9,5.84,7a16.693,16.693,0,0,1,1.66,7.61v4.35a16.362,16.362,0,0,1-1.84,8.23,14.155,14.155,0,0,1-5.46,5.24q-2.775,1.56-8.24,1.56h-9.75v-35.89ZM3019.9,2093c2.21,0,3.78-.43,4.72-1.28a4.223,4.223,0,0,0,1.41-3.29,4.278,4.278,0,0,0-1.41-3.33c-0.94-.85-2.51-1.28-4.72-1.28h-1.57v-18.88a12.119,12.119,0,0,0-4.72-10.1q-4.725-3.69-13.27-3.69a41.7,41.7,0,0,0-6.4.56,61.573,61.573,0,0,0-6.94,1.5,15.114,15.114,0,0,0-3.36,1.23,3.589,3.589,0,0,0-1.25,1.37,4.2,4.2,0,0,0-.45,2.01,4.673,4.673,0,0,0,1.28,3.38,4.165,4.165,0,0,0,3.11,1.32,17.151,17.151,0,0,0,3.76-.58,45.638,45.638,0,0,1,10.56-1.61q4.965,0,6.74,1.29a4,4,0,0,1,1.77,3.36v2.19a61.119,61.119,0,0,0-9.63-.89q-10.38,0-16.27,4.94t-5.88,10.72c0,3.17,1.53,6.05,4.61,8.67s7.07,3.91,11.99,3.91a34.983,34.983,0,0,0,7.57-.92,29.507,29.507,0,0,0,7.61-2.75V2093h10.74Zm-10.74-12.49a27.8,27.8,0,0,1-7.46,3.54,25.76,25.76,0,0,1-7.49,1.3,11.047,11.047,0,0,1-6.13-1.48,2.431,2.431,0,0,1-1.21-2.1q0-1.8,2.5-3.54a16.773,16.773,0,0,1,9.63-2.73,53.824,53.824,0,0,1,10.16,1.07v3.94Zm62.37-18.98q3.315,0,4.72-1.27a4.238,4.238,0,0,0,1.41-3.29,4.3,4.3,0,0,0-1.41-3.34q-1.41-1.275-4.72-1.27h-16.97v-8.28c0-2.21-.42-3.78-1.27-4.72a4.238,4.238,0,0,0-3.29-1.41,4.3,4.3,0,0,0-3.34,1.41c-0.85.94-1.27,2.51-1.27,4.72v8.28h-3.31q-3.315,0-4.73,1.27a4.238,4.238,0,0,0-1.41,3.29,4.285,4.285,0,0,0,1.41,3.34q1.41,1.275,4.73,1.27h3.31v20.19a11.514,11.514,0,0,0,4.27,9.06q4.275,3.7,12.83,3.7a42.716,42.716,0,0,0,10.9-1.77q6.465-1.77,8.66-3.87a4.063,4.063,0,0,0,1.43-3.09,4.505,4.505,0,0,0-1.32-3.27,4.242,4.242,0,0,0-3.11-1.34,8.719,8.719,0,0,0-3.58,1.16,28.448,28.448,0,0,1-12.98,3c-3.23,0-5.46-.49-6.72-1.48-0.8-.62-1.21-1.92-1.21-3.89v-18.4h16.97Zm60.22,31.47q3.315,0,4.72-1.28a4.223,4.223,0,0,0,1.41-3.29,4.278,4.278,0,0,0-1.41-3.33q-1.41-1.275-4.72-1.28h-1.57v-18.88a12.119,12.119,0,0,0-4.72-10.1q-4.725-3.69-13.27-3.69a41.7,41.7,0,0,0-6.4.56,61.573,61.573,0,0,0-6.94,1.5,14.767,14.767,0,0,0-3.35,1.23,3.537,3.537,0,0,0-1.26,1.37,4.2,4.2,0,0,0-.45,2.01,4.673,4.673,0,0,0,1.28,3.38,4.165,4.165,0,0,0,3.11,1.32,17.067,17.067,0,0,0,3.76-.58,45.638,45.638,0,0,1,10.56-1.61c3.32,0,5.56.43,6.74,1.29a4,4,0,0,1,1.77,3.36v2.19a61.119,61.119,0,0,0-9.63-.89q-10.38,0-16.27,4.94t-5.88,10.72c0,3.17,1.54,6.05,4.61,8.67s7.07,3.91,11.99,3.91a34.983,34.983,0,0,0,7.57-.92,29.507,29.507,0,0,0,7.61-2.75V2093h10.74Zm-10.74-12.49a27.731,27.731,0,0,1-7.45,3.54,25.822,25.822,0,0,1-7.5,1.3,11.047,11.047,0,0,1-6.13-1.48,2.431,2.431,0,0,1-1.21-2.1q0-1.8,2.5-3.54a16.773,16.773,0,0,1,9.63-2.73,53.824,53.824,0,0,1,10.16,1.07v3.94Zm127.98-18.95a4.238,4.238,0,0,0,1.41-3.29,4.285,4.285,0,0,0-1.41-3.34c-0.94-.85-2.51-1.27-4.72-1.27h-39.21c-2.2,0-3.78.42-4.72,1.27a4.238,4.238,0,0,0-1.41,3.29,4.285,4.285,0,0,0,1.41,3.34c0.94,0.85,2.52,1.27,4.72,1.27h39.21C3246.48,2062.83,3248.05,2062.41,3248.99,2061.56Zm0,17.3a4.229,4.229,0,0,0,1.41-3.32,4.278,4.278,0,0,0-1.41-3.33c-0.94-.85-2.51-1.28-4.72-1.28h-39.21c-2.2,0-3.78.43-4.72,1.28a4.278,4.278,0,0,0-1.41,3.33,4.229,4.229,0,0,0,1.41,3.32c0.94,0.83,2.52,1.25,4.72,1.25h39.21C3246.48,2080.11,3248.05,2079.69,3248.99,2078.86Zm55.93-17.3a4.238,4.238,0,0,0,1.41-3.29,4.285,4.285,0,0,0-1.41-3.34c-0.94-.85-2.51-1.27-4.72-1.27h-39.21c-2.21,0-3.78.42-4.72,1.27a4.238,4.238,0,0,0-1.41,3.29,4.285,4.285,0,0,0,1.41,3.34c0.94,0.85,2.51,1.27,4.72,1.27h39.21C3302.41,2062.83,3303.98,2062.41,3304.92,2061.56Zm0,17.3a4.229,4.229,0,0,0,1.41-3.32,4.278,4.278,0,0,0-1.41-3.33c-0.94-.85-2.51-1.28-4.72-1.28h-39.21c-2.21,0-3.78.43-4.72,1.28a4.278,4.278,0,0,0-1.41,3.33,4.229,4.229,0,0,0,1.41,3.32c0.94,0.83,2.51,1.25,4.72,1.25h39.21C3302.41,2080.11,3303.98,2079.69,3304.92,2078.86Zm55.93-17.3a4.238,4.238,0,0,0,1.41-3.29,4.285,4.285,0,0,0-1.41-3.34c-0.94-.85-2.52-1.27-4.73-1.27h-39.2c-2.21,0-3.79.42-4.73,1.27a4.238,4.238,0,0,0-1.41,3.29,4.285,4.285,0,0,0,1.41,3.34c0.94,0.85,2.52,1.27,4.73,1.27h39.2C3358.33,2062.83,3359.91,2062.41,3360.85,2061.56Zm0,17.3a4.229,4.229,0,0,0,1.41-3.32,4.278,4.278,0,0,0-1.41-3.33c-0.94-.85-2.52-1.28-4.73-1.28h-39.2c-2.21,0-3.79.43-4.73,1.28a4.278,4.278,0,0,0-1.41,3.33,4.229,4.229,0,0,0,1.41,3.32c0.94,0.83,2.52,1.25,4.73,1.25h39.2C3358.33,2080.11,3359.91,2079.69,3360.85,2078.86Zm69.44-26.5c-2.21,0-3.78.42-4.72,1.27a4.238,4.238,0,0,0-1.41,3.29,4.361,4.361,0,0,0,1.38,3.32,6.158,6.158,0,0,0,4.3,1.29v22.29c-2.36,0-3.89.23-4.61,0.68a4.382,4.382,0,0,0-2.15,3.89,4.278,4.278,0,0,0,1.41,3.33c0.94,0.85,2.52,1.28,4.72,1.28h10.43c2.21,0,3.78-.43,4.72-1.28a4.223,4.223,0,0,0,1.41-3.29,4.322,4.322,0,0,0-2.19-3.93c-0.69-.45-2.21-0.68-4.56-0.68v-17.05a24.763,24.763,0,0,1,6.06-5.21,12.031,12.031,0,0,1,5.57-1.23c2.81,0,4.91.59,6.31,1.79a5.449,5.449,0,0,1,1.62,4.38v17.32a6.19,6.19,0,0,0-4.3,1.28,4.613,4.613,0,0,0,.02,6.62q1.41,1.275,4.72,1.28h8.28q3.315,0,4.73-1.28a4.223,4.223,0,0,0,1.41-3.29,4.331,4.331,0,0,0-1.39-3.33,6.207,6.207,0,0,0-4.3-1.28v-17.05q0-6.54-3.76-10.56-4.74-5.055-12.89-5.06a19.622,19.622,0,0,0-6.56,1.07,17.338,17.338,0,0,0-5.52,3.23v-3.09h-8.73Zm96.97,21.08a20.292,20.292,0,0,0-1.43-7.88,26.992,26.992,0,0,0-5.33-8.19,21.785,21.785,0,0,0-6.96-4.25,26.256,26.256,0,0,0-10.27-1.97,24.631,24.631,0,0,0-16.45,6.07,19.659,19.659,0,0,0-7.14,15.73,20.215,20.215,0,0,0,6.6,15.31q6.6,6.21,17.61,6.22a63.061,63.061,0,0,0,13.34-1.5q6.945-1.5,8.73-3.16a4.014,4.014,0,0,0,1.34-3.04,4.554,4.554,0,0,0-1.25-3.27,4.161,4.161,0,0,0-3.09-1.3,23.294,23.294,0,0,0-4.83.9,57.178,57.178,0,0,1-13.57,2.19q-6.21,0-9.86-2.19a11.705,11.705,0,0,1-5.08-5.78h37.64v-3.89Zm-37.38-5.28a14.732,14.732,0,0,1,5.55-5.89,17.8,17.8,0,0,1,16.16,0,14.382,14.382,0,0,1,5.51,5.89h-27.22Zm77.06,24.84h8.5l7.52-31.47a5.4,5.4,0,0,0,3.65-1.45,4.606,4.606,0,0,0-.18-6.45c-0.94-.85-2.52-1.27-4.72-1.27h-8.64c-2.21,0-3.78.42-4.72,1.27a4.238,4.238,0,0,0-1.41,3.29,4.408,4.408,0,0,0,2.14,3.94c0.72,0.45,2.21.67,4.48,0.67l-3.58,14.55-5.73-14.9h-8.15l-5.68,14.9-3.49-14.55c2.36,0,3.94-.35,4.74-1.07a4.473,4.473,0,0,0,1.61-3.49,4.3,4.3,0,0,0-1.41-3.34c-0.94-.85-2.51-1.27-4.72-1.27h-8.55c-2.21,0-3.78.42-4.72,1.27a4.238,4.238,0,0,0-1.41,3.29,4.333,4.333,0,0,0,1.28,3.2,5.576,5.576,0,0,0,3.78,1.41l7.7,31.47h8.64l6.35-16.92Zm35.91-45.07H3605c2.21,0,3.78-.43,4.7-1.28a4.3,4.3,0,0,0,1.39-3.33,4.208,4.208,0,0,0-1.41-3.31q-1.41-1.26-4.68-1.26l-12.4-.04c-2.2,0-3.78.42-4.72,1.27a4.3,4.3,0,0,0-1.41,3.34,4.382,4.382,0,0,0,2.15,3.89c0.69,0.48,2.1.72,4.25,0.72l18.8,45.07h8.82l18.84-45.07c2.12,0,3.52-.24,4.21-0.72a4.45,4.45,0,0,0,2.15-3.89,4.208,4.208,0,0,0-1.41-3.31c-0.94-.84-2.52-1.26-4.72-1.26l-12.31-.04q-3.315,0-4.72,1.27a4.649,4.649,0,0,0,0,6.67c0.94,0.85,2.51,1.28,4.72,1.28h2.1l-13.29,31.69Zm44.36,37.15a4.614,4.614,0,0,0,0,6.64c0.94,0.85,2.51,1.28,4.72,1.28h18.44a27.39,27.39,0,0,0,11.59-2.1,26.413,26.413,0,0,0,6.02-4.19,20.611,20.611,0,0,0,5.17-7.34,25.4,25.4,0,0,0,1.97-10.32v-4.38a26.323,26.323,0,0,0-1.07-8.1,29.393,29.393,0,0,0-3.2-6.67,29.07,29.07,0,0,0-4.1-5.28,19.718,19.718,0,0,0-6.87-4.21,23.886,23.886,0,0,0-8.75-1.66l-19.2-.04c-2.21,0-3.78.42-4.72,1.27a4.3,4.3,0,0,0-1.41,3.34,4.255,4.255,0,0,0,1.39,3.29,6.313,6.313,0,0,0,4.29,1.32v35.89A6,6,0,0,0,3647.21,2085.08Zm13.45-37.15h9.67a15.817,15.817,0,0,1,8.12,1.9q3.24,1.9,5.84,7a16.565,16.565,0,0,1,1.66,7.61v4.35a16.258,16.258,0,0,1-1.84,8.23,14.155,14.155,0,0,1-5.46,5.24q-2.775,1.56-8.23,1.56h-9.76v-35.89Zm86.27,45.07c2.21,0,3.78-.43,4.72-1.28a4.223,4.223,0,0,0,1.41-3.29,4.278,4.278,0,0,0-1.41-3.33c-0.94-.85-2.51-1.28-4.72-1.28h-1.56v-18.88a12.127,12.127,0,0,0-4.73-10.1q-4.725-3.69-13.27-3.69a41.7,41.7,0,0,0-6.4.56,61.573,61.573,0,0,0-6.94,1.5,14.767,14.767,0,0,0-3.35,1.23,3.537,3.537,0,0,0-1.26,1.37,4.2,4.2,0,0,0-.44,2.01,4.666,4.666,0,0,0,1.27,3.38,4.165,4.165,0,0,0,3.11,1.32,17.067,17.067,0,0,0,3.76-.58,45.635,45.635,0,0,1,10.57-1.61q4.965,0,6.73,1.29a4,4,0,0,1,1.77,3.36v2.19a61.106,61.106,0,0,0-9.62-.89q-10.4,0-16.27,4.94-5.9,4.95-5.89,10.72c0,3.17,1.54,6.05,4.61,8.67s7.07,3.91,12,3.91a34.9,34.9,0,0,0,7.56-.92,29.372,29.372,0,0,0,7.61-2.75V2093h10.74Zm-10.74-12.49a27.731,27.731,0,0,1-7.45,3.54,25.822,25.822,0,0,1-7.5,1.3,11.047,11.047,0,0,1-6.13-1.48,2.431,2.431,0,0,1-1.21-2.1c0-1.2.83-2.38,2.51-3.54a16.718,16.718,0,0,1,9.62-2.73,53.824,53.824,0,0,1,10.16,1.07v3.94Zm62.37-18.98c2.21,0,3.78-.42,4.72-1.27a4.238,4.238,0,0,0,1.41-3.29,4.3,4.3,0,0,0-1.41-3.34c-0.94-.85-2.51-1.27-4.72-1.27H3781.6v-8.28c0-2.21-.43-3.78-1.28-4.72a4.59,4.59,0,0,0-6.62,0c-0.85.94-1.28,2.51-1.28,4.72v8.28h-3.31c-2.21,0-3.78.42-4.72,1.27a4.238,4.238,0,0,0-1.41,3.29,4.285,4.285,0,0,0,1.41,3.34c0.94,0.85,2.51,1.27,4.72,1.27h3.31v20.19a11.524,11.524,0,0,0,4.28,9.06q4.26,3.7,12.82,3.7a42.65,42.65,0,0,0,10.9-1.77q6.465-1.77,8.66-3.87a4.063,4.063,0,0,0,1.43-3.09,4.505,4.505,0,0,0-1.32-3.27,4.242,4.242,0,0,0-3.11-1.34,8.719,8.719,0,0,0-3.58,1.16,28.448,28.448,0,0,1-12.98,3q-4.83,0-6.71-1.48c-0.81-.62-1.21-1.92-1.21-3.89v-18.4h16.96Zm60.22,31.47c2.21,0,3.79-.43,4.73-1.28a4.248,4.248,0,0,0,1.4-3.29,4.3,4.3,0,0,0-1.4-3.33c-0.94-.85-2.52-1.28-4.73-1.28h-1.56v-18.88a12.127,12.127,0,0,0-4.73-10.1q-4.71-3.69-13.27-3.69a41.7,41.7,0,0,0-6.4.56,62.052,62.052,0,0,0-6.94,1.5,14.97,14.97,0,0,0-3.35,1.23,3.537,3.537,0,0,0-1.26,1.37,4.321,4.321,0,0,0-.44,2.01,4.666,4.666,0,0,0,1.27,3.38,4.165,4.165,0,0,0,3.11,1.32,17.067,17.067,0,0,0,3.76-.58,45.635,45.635,0,0,1,10.57-1.61q4.965,0,6.73,1.29a4,4,0,0,1,1.77,3.36v2.19a61.106,61.106,0,0,0-9.62-.89q-10.4,0-16.27,4.94-5.9,4.95-5.89,10.72c0,3.17,1.54,6.05,4.61,8.67s7.07,3.91,12,3.91a34.9,34.9,0,0,0,7.56-.92,29.372,29.372,0,0,0,7.61-2.75V2093h10.74Zm-10.74-12.49a27.731,27.731,0,0,1-7.45,3.54,25.822,25.822,0,0,1-7.5,1.3,11.07,11.07,0,0,1-6.13-1.48,2.431,2.431,0,0,1-1.21-2.1q0-1.8,2.51-3.54a16.718,16.718,0,0,1,9.62-2.73,53.824,53.824,0,0,1,10.16,1.07v3.94Z"/>
      <path id="_" data-name="}" class="cls-1" d="M2716.82,810.881a16.539,16.539,0,0,0-.49,4.793v12.6a3.615,3.615,0,0,1-.69,2.4,3.135,3.135,0,0,1-2.09.7,4.039,4.039,0,0,0-2.7,1.276,4.035,4.035,0,0,0,.13,5.566,4.152,4.152,0,0,0,3.03,1.16,9.818,9.818,0,0,0,7.16-3.112,10.146,10.146,0,0,0,3.09-7.4V814.9a3.636,3.636,0,0,1,.66-2.4,3.486,3.486,0,0,1,2.18-.715,4.206,4.206,0,0,0,2.74-1.256,3.89,3.89,0,0,0,.95-2.745,3.944,3.944,0,0,0-.95-2.783,4.124,4.124,0,0,0-2.72-1.237,3.582,3.582,0,0,1-2.32-.831,3.649,3.649,0,0,1-.54-2.3v-13.22a9.442,9.442,0,0,0-1.12-4.639,11.663,11.663,0,0,0-4.18-4.465,9.909,9.909,0,0,0-4.98-1.372,4.1,4.1,0,0,0-3,1.16,4.035,4.035,0,0,0-.13,5.566,4.007,4.007,0,0,0,2.66,1.276,3.373,3.373,0,0,1,2.23.831,3.454,3.454,0,0,1,.59,2.261v12.6a12.646,12.646,0,0,0,.53,4.078,9.724,9.724,0,0,0,1.87,3.073A9.154,9.154,0,0,0,2716.82,810.881Z"/>
    </g>
    <path id="_v-card_vData_vData_v-card_" data-name="&lt;v-card [vData]=”vData”&gt;&lt;/v-card&gt;" class="cls-1" d="M166.781,1355.33a9.392,9.392,0,0,0,2.841-2.14,3.874,3.874,0,0,0,.7-2.39,4.3,4.3,0,0,0-1.324-3.16,4.247,4.247,0,0,0-3.119-1.33,8.379,8.379,0,0,0-3.418,1.24l-42.255,23.5,42.255,23.5a8.3,8.3,0,0,0,3.46,1.28,4.184,4.184,0,0,0,3.077-1.35,4.363,4.363,0,0,0,1.324-3.18,3.854,3.854,0,0,0-.7-2.39,9.392,9.392,0,0,0-2.841-2.14l-28.369-15.72Zm24.715,10.63c2.364,0,3.888-.21,4.572-0.64a4.412,4.412,0,0,0,.7-6.9c-0.9-.81-2.386-1.21-4.465-1.21H180.559c-2.109,0-3.61.4-4.508,1.21a4.055,4.055,0,0,0-1.345,3.14,4.1,4.1,0,0,0,1.345,3.19c0.9,0.81,2.4,1.21,4.508,1.21H181.8L196.452,1396H205.6l14.655-30.04H221.7c2.107,0,3.61-.4,4.507-1.21a4.042,4.042,0,0,0,1.346-3.14,4.118,4.118,0,0,0-1.346-3.19c-0.9-.81-2.4-1.21-4.507-1.21H209.7c-2.108,0-3.61.4-4.507,1.21a4.053,4.053,0,0,0-1.346,3.14,4.23,4.23,0,0,0,2.136,3.81c0.655,0.4,2.15.59,4.486,0.59l-9.442,19.4Zm81.2,1.2H236.121v7.99h36.573v-7.99Zm42.916-10.42a31.242,31.242,0,0,0-6.751-.69q-10.041,0-16.278,6.13a20.809,20.809,0,0,0-6.238,15.49,18.292,18.292,0,0,0,7.691,15.55q5.681,4.23,15.893,4.23,11.364,0,17.261-3.89,3.974-2.6,3.973-5.51a4.325,4.325,0,0,0-1.3-3.12,4.2,4.2,0,0,0-3.1-1.32,5.308,5.308,0,0,0-3.333,1.64,10.958,10.958,0,0,1-3.888,2.33,29.854,29.854,0,0,1-8.929,1.11q-8.331,0-11.92-2.97a9.92,9.92,0,0,1-3.589-8.09,12.277,12.277,0,0,1,3.738-9.19,13.651,13.651,0,0,1,9.934-3.63,17.125,17.125,0,0,1,8.844,2.05,5.167,5.167,0,0,1,2.478,3.53,5.832,5.832,0,0,0,1.41,3.14,4.613,4.613,0,0,0,3.033,1.02,4.129,4.129,0,0,0,3.183-1.32c0.812-.88,1.218-2.38,1.218-4.49v-5.64c0-2.08-.406-3.57-1.218-4.46a3.989,3.989,0,0,0-3.1-1.35,4.728,4.728,0,0,0-3.247,1.5A23.307,23.307,0,0,0,315.61,1356.74ZM379.247,1396c2.108,0,3.61-.41,4.507-1.22a4.038,4.038,0,0,0,1.346-3.14,4.079,4.079,0,0,0-1.346-3.18c-0.9-.81-2.4-1.22-4.507-1.22h-1.5v-18.03a11.564,11.564,0,0,0-4.508-9.63q-4.508-3.525-12.668-3.53a38.985,38.985,0,0,0-6.109.54,58.341,58.341,0,0,0-6.623,1.43,14.192,14.192,0,0,0-3.2,1.17,3.434,3.434,0,0,0-1.2,1.31,4.06,4.06,0,0,0-.427,1.92,4.436,4.436,0,0,0,1.217,3.22,3.972,3.972,0,0,0,2.97,1.26,16.442,16.442,0,0,0,3.589-.55,43.589,43.589,0,0,1,10.083-1.54q4.741,0,6.429,1.24a3.806,3.806,0,0,1,1.688,3.2v2.1a57.644,57.644,0,0,0-9.186-.86q-9.912,0-15.53,4.72t-5.618,10.24q0,4.53,4.4,8.26,4.4,3.75,11.45,3.74a34.033,34.033,0,0,0,7.221-.87,28.52,28.52,0,0,0,7.263-2.63V1396h10.254Zm-10.254-11.92a26.211,26.211,0,0,1-7.113,3.37,24.342,24.342,0,0,1-7.157,1.24,10.526,10.526,0,0,1-5.853-1.41,2.316,2.316,0,0,1-1.154-2c0-1.14.8-2.27,2.393-3.38a15.96,15.96,0,0,1,9.186-2.61,51.217,51.217,0,0,1,9.7,1.03v3.76Zm31.765-26.87c-2.108,0-3.61.4-4.507,1.21a4.053,4.053,0,0,0-1.346,3.14,4.1,4.1,0,0,0,1.346,3.19c0.9,0.81,2.4,1.21,4.507,1.21h3.162v21.28h-5.213c-2.108,0-3.61.41-4.507,1.22a4.038,4.038,0,0,0-1.346,3.14,4.079,4.079,0,0,0,1.346,3.18c0.9,0.81,2.4,1.22,4.507,1.22h26.447c2.107,0,3.61-.41,4.507-1.22a4.038,4.038,0,0,0,1.346-3.14,4.079,4.079,0,0,0-1.346-3.18c-0.9-.81-2.4-1.22-4.507-1.22H412.678v-13.2a87.014,87.014,0,0,1,9.122-6.92q3.652-2.31,5.49-2.31a5.118,5.118,0,0,1,3.2,1.62,5.229,5.229,0,0,0,3.418,1.63,4.461,4.461,0,0,0,4.444-4.49q0-2.22-2.735-4.36a13.312,13.312,0,0,0-8.288-3.16,15.45,15.45,0,0,0-5.96,1.33,48.3,48.3,0,0,0-8.695,5.29v-5.46h-11.92Zm76.968-16.62c-2.109,0-3.611.4-4.508,1.21a4.118,4.118,0,0,0-1.346,3.19,4.042,4.042,0,0,0,1.346,3.14c0.9,0.81,2.4,1.21,4.508,1.21h1.5v10.9a26.583,26.583,0,0,0-6.494-3.14,21.942,21.942,0,0,0-6.708-1.05,21.086,21.086,0,0,0-15.424,6.28,20.616,20.616,0,0,0-6.323,15.17,18.779,18.779,0,0,0,6.024,14.21q6.024,5.7,15.894,5.7a25.4,25.4,0,0,0,6.772-.9,25.9,25.9,0,0,0,6.259-2.65V1396h10.254c2.107,0,3.61-.41,4.507-1.22a4.359,4.359,0,0,0-.021-6.32c-0.912-.81-2.407-1.22-4.486-1.22h-1.5v-46.65H477.726Zm-1.966,44.96q-3.461,3.1-9.656,3.1-6.238,0-9.655-3.1a10.2,10.2,0,0,1-3.418-7.92,12.29,12.29,0,0,1,3.8-9.06,13.364,13.364,0,0,1,18.586,0,12.439,12.439,0,0,1,3.8,9.19A10,10,0,0,1,475.76,1385.55Zm108.434-36.08c2.107,0,3.61-.4,4.507-1.21a4.394,4.394,0,0,0,0-6.33c-0.9-.81-2.4-1.22-4.507-1.22H570.18v68.96h14.056c2.108,0,3.611-.4,4.508-1.22a4.083,4.083,0,0,0,1.346-3.18,4.026,4.026,0,0,0-1.346-3.16q-1.346-1.2-4.508-1.2h-5.3v-51.44h5.256Zm34.371,16.49c2.363,0,3.888-.21,4.571-0.64a4.412,4.412,0,0,0,.705-6.9c-0.9-.81-2.386-1.21-4.465-1.21H607.627c-2.108,0-3.61.4-4.507,1.21a4.053,4.053,0,0,0-1.346,3.14,4.1,4.1,0,0,0,1.346,3.19c0.9,0.81,2.4,1.21,4.507,1.21h1.239L623.521,1396h9.143l14.654-30.04h1.453c2.107,0,3.61-.4,4.507-1.21a4.038,4.038,0,0,0,1.346-3.14,4.115,4.115,0,0,0-1.346-3.19c-0.9-.81-2.4-1.21-4.507-1.21H636.765c-2.108,0-3.61.4-4.507,1.21a4.056,4.056,0,0,0-1.346,3.14,4.232,4.232,0,0,0,2.136,3.81c0.655,0.4,2.15.59,4.486,0.59l-9.442,19.4Zm39.177,22.48a4.406,4.406,0,0,0,0,6.34c0.9,0.81,2.4,1.22,4.508,1.22h17.6a26.127,26.127,0,0,0,11.066-2.01,25.039,25.039,0,0,0,5.746-3.99,19.891,19.891,0,0,0,4.935-7.01,24.325,24.325,0,0,0,1.88-9.85v-4.18a25.336,25.336,0,0,0-1.026-7.74,31.887,31.887,0,0,0-6.964-11.41,19.005,19.005,0,0,0-6.558-4.01,23.015,23.015,0,0,0-8.352-1.58l-18.329-.04c-2.109,0-3.611.4-4.508,1.21a4.418,4.418,0,0,0-.021,6.33,6.068,6.068,0,0,0,4.1,1.26v34.26A5.687,5.687,0,0,0,657.742,1388.44Zm12.839-35.46h9.228a15.138,15.138,0,0,1,7.755,1.81q3.1,1.815,5.576,6.69a15.871,15.871,0,0,1,1.581,7.26v4.15a15.618,15.618,0,0,1-1.752,7.86,13.6,13.6,0,0,1-5.213,5q-2.649,1.485-7.861,1.49h-9.314v-34.26ZM752.932,1396c2.107,0,3.61-.41,4.507-1.22a4.038,4.038,0,0,0,1.346-3.14,4.079,4.079,0,0,0-1.346-3.18c-0.9-.81-2.4-1.22-4.507-1.22h-1.5v-18.03a11.564,11.564,0,0,0-4.508-9.63q-4.508-3.525-12.668-3.53a39.007,39.007,0,0,0-6.11.54,58.371,58.371,0,0,0-6.622,1.43,14.192,14.192,0,0,0-3.2,1.17,3.434,3.434,0,0,0-1.2,1.31,4.06,4.06,0,0,0-.428,1.92,4.437,4.437,0,0,0,1.218,3.22,3.972,3.972,0,0,0,2.969,1.26,16.425,16.425,0,0,0,3.589-.55,43.6,43.6,0,0,1,10.083-1.54q4.743,0,6.43,1.24a3.806,3.806,0,0,1,1.688,3.2v2.1a57.655,57.655,0,0,0-9.186-.86q-9.912,0-15.53,4.72t-5.618,10.24q0,4.53,4.4,8.26,4.4,3.75,11.45,3.74a34.033,34.033,0,0,0,7.221-.87,28.52,28.52,0,0,0,7.263-2.63V1396h10.254Zm-10.254-11.92a26.217,26.217,0,0,1-7.114,3.37,24.336,24.336,0,0,1-7.156,1.24,10.526,10.526,0,0,1-5.853-1.41,2.316,2.316,0,0,1-1.154-2c0-1.14.8-2.27,2.393-3.38a15.96,15.96,0,0,1,9.186-2.61,51.217,51.217,0,0,1,9.7,1.03v3.76Zm59.536-18.12c2.107,0,3.61-.4,4.507-1.21a4.042,4.042,0,0,0,1.346-3.14,4.118,4.118,0,0,0-1.346-3.19c-0.9-.81-2.4-1.21-4.507-1.21H786.021v-7.91c0-2.11-.406-3.61-1.217-4.51a4.062,4.062,0,0,0-3.141-1.34,4.111,4.111,0,0,0-3.183,1.34c-0.811.9-1.217,2.4-1.217,4.51v7.91H774.1c-2.108,0-3.61.4-4.507,1.21a4.053,4.053,0,0,0-1.346,3.14,4.1,4.1,0,0,0,1.346,3.19c0.9,0.81,2.4,1.21,4.507,1.21h3.162v19.27a10.981,10.981,0,0,0,4.08,8.65q4.079,3.525,12.24,3.53a40.537,40.537,0,0,0,10.4-1.69q6.174-1.68,8.267-3.69a3.86,3.86,0,0,0,1.367-2.95,4.269,4.269,0,0,0-1.26-3.12,4.046,4.046,0,0,0-2.969-1.28,8.281,8.281,0,0,0-3.418,1.11,27.129,27.129,0,0,1-12.391,2.86q-4.614,0-6.408-1.41-1.154-.9-1.154-3.72v-17.56h16.193ZM859.7,1396c2.107,0,3.61-.41,4.507-1.22a4.038,4.038,0,0,0,1.346-3.14,4.079,4.079,0,0,0-1.346-3.18c-0.9-.81-2.4-1.22-4.507-1.22h-1.5v-18.03a11.564,11.564,0,0,0-4.508-9.63q-4.508-3.525-12.668-3.53a38.985,38.985,0,0,0-6.109.54,58.341,58.341,0,0,0-6.623,1.43,14.192,14.192,0,0,0-3.2,1.17,3.434,3.434,0,0,0-1.2,1.31,4.06,4.06,0,0,0-.428,1.92,4.437,4.437,0,0,0,1.218,3.22,3.972,3.972,0,0,0,2.969,1.26,16.425,16.425,0,0,0,3.589-.55,43.6,43.6,0,0,1,10.083-1.54q4.743,0,6.43,1.24a3.806,3.806,0,0,1,1.688,3.2v2.1a57.644,57.644,0,0,0-9.186-.86q-9.912,0-15.53,4.72t-5.618,10.24q0,4.53,4.4,8.26,4.4,3.75,11.45,3.74a34.033,34.033,0,0,0,7.221-.87,28.52,28.52,0,0,0,7.263-2.63V1396H859.7Zm-10.254-11.92a26.2,26.2,0,0,1-7.114,3.37,24.33,24.33,0,0,1-7.156,1.24,10.526,10.526,0,0,1-5.853-1.41,2.316,2.316,0,0,1-1.154-2c0-1.14.8-2.27,2.393-3.38a15.96,15.96,0,0,1,9.186-2.61,51.217,51.217,0,0,1,9.7,1.03v3.76Zm35.952,16.83c-2.108,0-3.61.41-4.508,1.22a4.041,4.041,0,0,0-1.345,3.14,4.082,4.082,0,0,0,1.345,3.18c0.9,0.82,2.4,1.22,4.508,1.22h14.014v-68.96H885.354c-2.108,0-3.61.41-4.507,1.22a4.394,4.394,0,0,0,0,6.33c0.9,0.81,2.4,1.21,4.507,1.21h5.3v51.44H885.4Zm86.217-34.92a4.056,4.056,0,0,0,1.346-3.14,4.1,4.1,0,0,0-1.346-3.19c-0.9-.81-2.4-1.22-4.507-1.22H929.68c-2.108,0-3.61.41-4.507,1.22a4.042,4.042,0,0,0-1.346,3.14,4.118,4.118,0,0,0,1.346,3.19c0.9,0.81,2.4,1.21,4.507,1.21h37.427C969.215,1367.2,970.717,1366.8,971.614,1365.99Zm0,16.51a4.026,4.026,0,0,0,1.346-3.16,4.118,4.118,0,0,0-1.346-3.19c-0.9-.81-2.4-1.21-4.507-1.21H929.68c-2.108,0-3.61.4-4.507,1.21a4.118,4.118,0,0,0-1.346,3.19,4.026,4.026,0,0,0,1.346,3.16q1.346,1.2,4.507,1.2h37.427Q970.269,1383.7,971.614,1382.5Zm13.116-21.66a4.774,4.774,0,0,0-.385,1.71,2.187,2.187,0,0,0,.855,1.62,2.862,2.862,0,0,0,1.965.77c0.826,0,1.609-.58,2.35-1.75l13.155-21.11H992.292Zm18.37,0a4.886,4.886,0,0,0-.38,1.71,2.18,2.18,0,0,0,.85,1.62,2.878,2.878,0,0,0,1.97.77c0.82,0,1.61-.58,2.35-1.75l13.16-21.11h-10.39Zm42.53,5.12c2.37,0,3.89-.21,4.57-0.64a4.4,4.4,0,0,0,.71-6.9c-0.9-.81-2.39-1.21-4.47-1.21H1034.7c-2.11,0-3.61.4-4.51,1.21a4.05,4.05,0,0,0-1.35,3.14,4.1,4.1,0,0,0,1.35,3.19c0.9,0.81,2.4,1.21,4.51,1.21h1.23l14.66,30.04h9.14l14.66-30.04h1.45c2.11,0,3.61-.4,4.51-1.21a4.06,4.06,0,0,0,1.34-3.14,4.137,4.137,0,0,0-1.34-3.19c-0.9-.81-2.4-1.21-4.51-1.21h-12.01c-2.1,0-3.61.4-4.5,1.21a4.05,4.05,0,0,0-1.35,3.14,4.224,4.224,0,0,0,2.14,3.81c0.65,0.4,2.15.59,4.48,0.59l-9.44,19.4Zm39.18,22.48a4.4,4.4,0,0,0,0,6.34c0.9,0.81,2.4,1.22,4.51,1.22h17.6a26.147,26.147,0,0,0,11.07-2.01,24.975,24.975,0,0,0,5.74-3.99,19.939,19.939,0,0,0,4.94-7.01,24.376,24.376,0,0,0,1.88-9.85v-4.18a25.142,25.142,0,0,0-1.03-7.74,27.932,27.932,0,0,0-3.05-6.36,28.764,28.764,0,0,0-3.91-5.05,19,19,0,0,0-6.56-4.01,23.036,23.036,0,0,0-8.35-1.58l-18.33-.04c-2.11,0-3.61.4-4.51,1.21a4.408,4.408,0,0,0-.02,6.33,6.061,6.061,0,0,0,4.1,1.26v34.26A5.7,5.7,0,0,0,1084.81,1388.44Zm12.84-35.46h9.23a15.118,15.118,0,0,1,7.75,1.81q3.105,1.815,5.58,6.69a15.909,15.909,0,0,1,1.58,7.26v4.15a15.693,15.693,0,0,1-1.75,7.86,13.612,13.612,0,0,1-5.22,5q-2.64,1.485-7.86,1.49h-9.31v-34.26ZM1180,1396c2.11,0,3.61-.41,4.51-1.22a4.06,4.06,0,0,0,1.34-3.14,4.1,4.1,0,0,0-1.34-3.18c-0.9-.81-2.4-1.22-4.51-1.22h-1.5v-18.03a11.571,11.571,0,0,0-4.5-9.63q-4.515-3.525-12.67-3.53a39.037,39.037,0,0,0-6.11.54,58.1,58.1,0,0,0-6.62,1.43,14.277,14.277,0,0,0-3.21,1.17,3.411,3.411,0,0,0-1.19,1.31,4,4,0,0,0-.43,1.92,4.446,4.446,0,0,0,1.22,3.22,3.968,3.968,0,0,0,2.97,1.26,16.491,16.491,0,0,0,3.59-.55,43.6,43.6,0,0,1,10.08-1.54q4.74,0,6.43,1.24a3.821,3.821,0,0,1,1.69,3.2v2.1a57.731,57.731,0,0,0-9.19-.86q-9.915,0-15.53,4.72t-5.62,10.24q0,4.53,4.4,8.26,4.41,3.75,11.45,3.74a33.995,33.995,0,0,0,7.22-.87,28.641,28.641,0,0,0,7.27-2.63V1396H1180Zm-10.25-11.92a26.157,26.157,0,0,1-7.12,3.37,24.321,24.321,0,0,1-7.15,1.24,10.561,10.561,0,0,1-5.86-1.41,2.31,2.31,0,0,1-1.15-2c0-1.14.8-2.27,2.39-3.38a15.991,15.991,0,0,1,9.19-2.61,51.312,51.312,0,0,1,9.7,1.03v3.76Zm59.53-18.12c2.11,0,3.61-.4,4.51-1.21a4.035,4.035,0,0,0,1.35-3.14,4.111,4.111,0,0,0-1.35-3.19c-0.9-.81-2.4-1.21-4.51-1.21h-16.19v-7.91c0-2.11-.41-3.61-1.22-4.51a4.06,4.06,0,0,0-3.14-1.34,4.1,4.1,0,0,0-3.18,1.34c-0.81.9-1.22,2.4-1.22,4.51v7.91h-3.16c-2.11,0-3.61.4-4.51,1.21a4.041,4.041,0,0,0-1.34,3.14,4.089,4.089,0,0,0,1.34,3.19c0.9,0.81,2.4,1.21,4.51,1.21h3.16v19.27a10.984,10.984,0,0,0,4.08,8.65q4.08,3.525,12.24,3.53a40.6,40.6,0,0,0,10.41-1.69c4.11-1.12,6.87-2.35,8.26-3.69a3.866,3.866,0,0,0,1.37-2.95,4.269,4.269,0,0,0-1.26-3.12,4.045,4.045,0,0,0-2.97-1.28,8.266,8.266,0,0,0-3.42,1.11,27.134,27.134,0,0,1-12.39,2.86q-4.605,0-6.41-1.41c-0.77-.6-1.15-1.84-1.15-3.72v-17.56h16.19Zm57.49,30.04c2.1,0,3.61-.41,4.5-1.22a4.035,4.035,0,0,0,1.35-3.14,4.076,4.076,0,0,0-1.35-3.18c-0.89-.81-2.4-1.22-4.5-1.22h-1.5v-18.03a11.552,11.552,0,0,0-4.51-9.63q-4.5-3.525-12.66-3.53a38.936,38.936,0,0,0-6.11.54,58.744,58.744,0,0,0-6.63,1.43,14.136,14.136,0,0,0-3.2,1.17,3.517,3.517,0,0,0-1.2,1.31,4.12,4.12,0,0,0-.42,1.92,4.439,4.439,0,0,0,1.21,3.22,4,4,0,0,0,2.97,1.26,16.407,16.407,0,0,0,3.59-.55,43.6,43.6,0,0,1,10.09-1.54q4.74,0,6.43,1.24a3.811,3.811,0,0,1,1.68,3.2v2.1a57.514,57.514,0,0,0-9.18-.86q-9.915,0-15.53,4.72t-5.62,10.24q0,4.53,4.4,8.26,4.395,3.75,11.45,3.74a34.069,34.069,0,0,0,7.22-.87,28.429,28.429,0,0,0,7.26-2.63V1396h10.26Zm-10.26-11.92a26.234,26.234,0,0,1-7.11,3.37,24.328,24.328,0,0,1-7.16,1.24,10.525,10.525,0,0,1-5.85-1.41,2.31,2.31,0,0,1-1.15-2c0-1.14.79-2.27,2.39-3.38a15.946,15.946,0,0,1,9.19-2.61,51.13,51.13,0,0,1,9.69,1.03v3.76Zm28.52-23.24a4.671,4.671,0,0,0-.38,1.71,2.18,2.18,0,0,0,.85,1.62,2.878,2.878,0,0,0,1.97.77c0.82,0,1.61-.58,2.35-1.75l13.16-21.11h-10.39Zm18.37,0a4.886,4.886,0,0,0-.38,1.71,2.18,2.18,0,0,0,.85,1.62,2.878,2.878,0,0,0,1.97.77c0.82,0,1.61-.58,2.35-1.75l13.16-21.11h-10.39Zm32.88,25.93a9.305,9.305,0,0,0-2.84,2.14,3.856,3.856,0,0,0-.71,2.39,4.334,4.334,0,0,0,1.33,3.2,4.238,4.238,0,0,0,3.12,1.33,8.251,8.251,0,0,0,3.41-1.28l42.26-23.5-42.26-23.5a8.322,8.322,0,0,0-3.41-1.24,4.543,4.543,0,0,0-4.45,4.49,3.876,3.876,0,0,0,.71,2.39,9.305,9.305,0,0,0,2.84,2.14l28.37,15.72Zm91.71-31.44a9.437,9.437,0,0,0,2.84-2.14,3.872,3.872,0,0,0,.7-2.39,4.306,4.306,0,0,0-1.32-3.16,4.254,4.254,0,0,0-3.12-1.33,8.4,8.4,0,0,0-3.42,1.24l-42.25,23.5,42.25,23.5a8.3,8.3,0,0,0,3.46,1.28,4.2,4.2,0,0,0,3.08-1.35,4.367,4.367,0,0,0,1.32-3.18,3.852,3.852,0,0,0-.7-2.39,9.437,9.437,0,0,0-2.84-2.14l-28.37-15.72Zm53.25-16.97a3.948,3.948,0,0,0-1.28-2.88,4.428,4.428,0,0,0-5.77-.36,9.228,9.228,0,0,0-1.88,2.95l-28.15,60.45a8.956,8.956,0,0,0-1.03,3.38,3.992,3.992,0,0,0,1.3,2.9,4.26,4.26,0,0,0,3.1,1.28,4.171,4.171,0,0,0,2.69-.89,8.926,8.926,0,0,0,1.93-2.95l28.07-60.5a9.085,9.085,0,0,0,1.02-3.38h0Zm24.85,27.6c2.36,0,3.88-.21,4.57-0.64a4.409,4.409,0,0,0,.7-6.9c-0.9-.81-2.38-1.21-4.46-1.21h-11.75c-2.11,0-3.61.4-4.51,1.21a4.05,4.05,0,0,0-1.35,3.14,4.1,4.1,0,0,0,1.35,3.19c0.9,0.81,2.4,1.21,4.51,1.21h1.24l14.65,30.04h9.14l14.66-30.04h1.45c2.11,0,3.61-.4,4.51-1.21a4.027,4.027,0,0,0,1.34-3.14,4.1,4.1,0,0,0-1.34-3.19c-0.9-.81-2.4-1.21-4.51-1.21h-12c-2.11,0-3.61.4-4.51,1.21a4.05,4.05,0,0,0-1.35,3.14,4.224,4.224,0,0,0,2.14,3.81c0.65,0.4,2.15.59,4.48,0.59l-9.44,19.4Zm81.19,1.2h-36.57v7.99h36.57v-7.99Zm42.92-10.42a31.239,31.239,0,0,0-6.75-.69q-10.05,0-16.28,6.13a20.807,20.807,0,0,0-6.24,15.49,18.308,18.308,0,0,0,7.69,15.55q5.685,4.23,15.9,4.23,11.355,0,17.26-3.89,3.975-2.6,3.97-5.51a4.318,4.318,0,0,0-1.3-3.12,4.206,4.206,0,0,0-3.1-1.32,5.288,5.288,0,0,0-3.33,1.64,10.991,10.991,0,0,1-3.89,2.33,29.856,29.856,0,0,1-8.93,1.11q-8.325,0-11.92-2.97a9.93,9.93,0,0,1-3.59-8.09,12.286,12.286,0,0,1,3.74-9.19,13.64,13.64,0,0,1,9.93-3.63,17.15,17.15,0,0,1,8.85,2.05,5.148,5.148,0,0,1,2.47,3.53,5.961,5.961,0,0,0,1.41,3.14,4.634,4.634,0,0,0,3.04,1.02,4.12,4.12,0,0,0,3.18-1.32c0.81-.88,1.22-2.38,1.22-4.49v-5.64c0-2.08-.41-3.57-1.22-4.46a3.98,3.98,0,0,0-3.1-1.35,4.706,4.706,0,0,0-3.24,1.5A23.358,23.358,0,0,0,1650.2,1356.74Zm63.64,39.26c2.1,0,3.61-.41,4.5-1.22a4.035,4.035,0,0,0,1.35-3.14,4.076,4.076,0,0,0-1.35-3.18c-0.89-.81-2.4-1.22-4.5-1.22h-1.5v-18.03a11.552,11.552,0,0,0-4.51-9.63q-4.5-3.525-12.66-3.53a38.835,38.835,0,0,0-6.11.54,58.744,58.744,0,0,0-6.63,1.43,14.136,14.136,0,0,0-3.2,1.17,3.517,3.517,0,0,0-1.2,1.31,4.12,4.12,0,0,0-.42,1.92,4.439,4.439,0,0,0,1.21,3.22,3.968,3.968,0,0,0,2.97,1.26,16.407,16.407,0,0,0,3.59-.55,43.6,43.6,0,0,1,10.08-1.54q4.755,0,6.43,1.24a3.8,3.8,0,0,1,1.69,3.2v2.1a57.617,57.617,0,0,0-9.18-.86q-9.915,0-15.53,4.72t-5.62,10.24q0,4.53,4.4,8.26,4.395,3.75,11.45,3.74a34.069,34.069,0,0,0,7.22-.87,28.429,28.429,0,0,0,7.26-2.63V1396h10.26Zm-10.26-11.92a26.234,26.234,0,0,1-7.11,3.37,24.381,24.381,0,0,1-7.16,1.24,10.5,10.5,0,0,1-5.85-1.41,2.32,2.32,0,0,1-1.16-2c0-1.14.8-2.27,2.4-3.38a15.936,15.936,0,0,1,9.18-2.61,51.145,51.145,0,0,1,9.7,1.03v3.76Zm31.77-26.87c-2.11,0-3.61.4-4.51,1.21a4.05,4.05,0,0,0-1.35,3.14,4.1,4.1,0,0,0,1.35,3.19c0.9,0.81,2.4,1.21,4.51,1.21h3.16v21.28h-5.21c-2.11,0-3.61.41-4.51,1.22a4.035,4.035,0,0,0-1.35,3.14,4.076,4.076,0,0,0,1.35,3.18c0.9,0.81,2.4,1.22,4.51,1.22h26.44c2.11,0,3.61-.41,4.51-1.22a4.035,4.035,0,0,0,1.35-3.14,4.076,4.076,0,0,0-1.35-3.18c-0.9-.81-2.4-1.22-4.51-1.22h-12.47v-13.2a85.885,85.885,0,0,1,9.12-6.92q3.645-2.31,5.49-2.31a5.1,5.1,0,0,1,3.2,1.62,5.244,5.244,0,0,0,3.42,1.63,4.456,4.456,0,0,0,4.44-4.49q0-2.22-2.73-4.36a13.319,13.319,0,0,0-8.29-3.16,15.453,15.453,0,0,0-5.96,1.33,48.26,48.26,0,0,0-8.69,5.29v-5.46h-11.92Zm76.96-16.62c-2.1,0-3.61.4-4.5,1.21a4.111,4.111,0,0,0-1.35,3.19,4.035,4.035,0,0,0,1.35,3.14c0.89,0.81,2.4,1.21,4.5,1.21h1.5v10.9a26.682,26.682,0,0,0-6.49-3.14,21.974,21.974,0,0,0-6.71-1.05,21.1,21.1,0,0,0-15.43,6.28,20.632,20.632,0,0,0-6.32,15.17,18.77,18.77,0,0,0,6.03,14.21q6.015,5.7,15.89,5.7a25.414,25.414,0,0,0,6.77-.9,25.828,25.828,0,0,0,6.26-2.65V1396h10.25c2.11,0,3.61-.41,4.51-1.22a4.351,4.351,0,0,0-.02-6.32c-0.91-.81-2.41-1.22-4.49-1.22h-1.49v-46.65h-10.26Zm-1.96,44.96q-3.465,3.1-9.66,3.1-6.24,0-9.65-3.1a10.194,10.194,0,0,1-3.42-7.92,12.307,12.307,0,0,1,3.8-9.06,13.369,13.369,0,0,1,18.59,0,12.452,12.452,0,0,1,3.8,9.19A9.992,9.992,0,0,1,1810.35,1385.55Zm26.38,1.22a9.437,9.437,0,0,0-2.84,2.14,3.856,3.856,0,0,0-.71,2.39,4.372,4.372,0,0,0,1.33,3.2,4.238,4.238,0,0,0,3.12,1.33,8.327,8.327,0,0,0,3.42-1.28l42.25-23.5-42.25-23.5a8.4,8.4,0,0,0-3.42-1.24,4.238,4.238,0,0,0-3.12,1.33,4.316,4.316,0,0,0-1.33,3.16,3.876,3.876,0,0,0,.71,2.39,9.437,9.437,0,0,0,2.84,2.14l28.37,15.72Z"/>
    <rect id="Rounded_Rectangle_1" data-name="Rounded Rectangle 1" class="cls-3" x="1495" y="363" width="1117" height="593" rx="100" ry="100"/>
    <path class="cls-2" d="M1614.25,381.827h877.19a100,100,0,0,1,100,100v358.3a100,100,0,0,1-100,100H1614.25a100,100,0,0,1-100-100v-358.3A100,100,0,0,1,1614.25,381.827Z"/>
    <path id="line" class="cls-1" d="M2059,956h-14v756h14V956Z"/>
    <path id="arrow" class="cls-1" d="M2058.15,1437l0.17,264.51c14.43-12.76,23.85-19.11,36.69-19.77-22.12,29.01-33.62,66.7-44.43,112.25-10.41-45.53-23.11-81.55-44.59-112.18,13.95,1.94,22.38,7.22,37.75,20.11l-0.17-264.91Z"/>
    <rect id="Rounded_Rectangle_1_copy" data-name="Rounded Rectangle 1 copy" class="cls-3" x="1495" y="1775" width="1117" height="593" rx="100" ry="100"/>
    <path id="VCardCmp" class="cls-4" d="M1795.95,2118.27l29.32-87.06h-20.92l-11.11,37.2c-2.97,9.95-5.68,20.28-7.88,30.74h-0.39c-2.06-10.85-4.78-20.79-7.75-31.13l-10.59-36.81h-21.57l27.9,87.06h22.99Zm99.85-17.83a48.99,48.99,0,0,1-16.41,2.85c-17.56,0-27.9-10.98-27.9-28.42,0-19.37,12.14-28.8,27.77-28.8a42.539,42.539,0,0,1,16.54,3.23l4-15.63c-3.49-1.81-11.24-3.75-21.44-3.75-26.35,0-47.53,16.4-47.53,46.11,0,24.8,15.5,43.66,45.59,43.66,10.59,0,18.73-2.07,22.35-3.87Zm67.94-19.5c0-14.85-6.72-27.25-27.77-27.25-11.5,0-20.15,3.1-24.55,5.55l3.62,12.66a35.554,35.554,0,0,1,17.44-4.78c9.69,0,11.49,4.78,11.49,8.14v0.9c-22.34-.13-37.07,7.75-37.07,24.16,0,10.07,7.62,19.37,20.41,19.37,7.49,0,13.95-2.71,18.09-7.75h0.38l1.17,6.33h17.69a98.678,98.678,0,0,1-.9-15.37v-21.96Zm-19.12,14.34a14.062,14.062,0,0,1-.39,3.36,10.72,10.72,0,0,1-10.2,7.23c-4.39,0-7.75-2.45-7.75-7.49,0-7.62,8.01-10.08,18.34-9.95v6.85Zm35.91,22.99h19.63v-32.03a22.977,22.977,0,0,1,.39-4.39c1.29-6.08,6.2-9.95,13.43-9.95a19.6,19.6,0,0,1,5.3.65v-18.6a20.111,20.111,0,0,0-4.13-.26c-6.08,0-13.83,3.87-17.05,13.04h-0.52l-0.65-11.62h-16.92c0.26,5.42.52,11.49,0.52,20.79v42.37Zm90.93-91.71v34.23h-0.26c-2.84-4.39-8.91-7.1-16.66-7.1-15.11,0-28.42,12.27-28.29,33.58,0,19.63,12.02,32.42,27,32.42,8.14,0,15.76-3.62,19.76-10.72h0.26l0.9,9.3h17.44c-0.26-4.26-.52-11.75-0.52-18.86v-72.85h-19.63Zm0,63.55a16.6,16.6,0,0,1-.52,4.52,11.484,11.484,0,0,1-11.36,9.43c-8.14,0-13.44-6.71-13.44-17.44,0-9.94,4.65-17.95,13.57-17.95,6.07,0,10.33,4.39,11.49,9.69a31.336,31.336,0,0,1,.26,3.49v8.26Zm98.3,10.33a48.99,48.99,0,0,1-16.41,2.85c-17.56,0-27.9-10.98-27.9-28.42,0-19.37,12.14-28.8,27.77-28.8a42.539,42.539,0,0,1,16.54,3.23l4-15.63c-3.49-1.81-11.24-3.75-21.44-3.75-26.35,0-47.53,16.4-47.53,46.11,0,24.8,15.5,43.66,45.59,43.66,10.59,0,18.73-2.07,22.35-3.87Zm16.01,17.83h19.12v-36.81a13.138,13.138,0,0,1,.77-4.91c1.17-3.23,4.14-7.1,9.17-7.1,6.2,0,9.05,5.42,9.05,13.43v35.39h19.11v-36.94a16.342,16.342,0,0,1,.78-5.04,9.608,9.608,0,0,1,9.04-6.84c6.33,0,9.3,5.29,9.3,14.46v34.36h19.11v-37.2c0-18.86-9.17-27.38-21.31-27.38a22.755,22.755,0,0,0-12.01,3.1,26.667,26.667,0,0,0-8.14,7.62h-0.26c-2.71-6.59-9.17-10.72-17.3-10.72-10.85,0-16.41,5.94-19.12,9.94h-0.39l-0.9-8.52h-16.54c0.26,5.55.52,12.27,0.52,20.15v43.01Zm112.37,25.57h19.64v-31.38h0.26c2.84,4.13,8.78,7.23,16.4,7.23,14.08,0,28.67-10.85,28.67-33.84,0-20.15-12.4-32.16-26.22-32.16-9.17,0-16.4,3.48-21.05,10.2h-0.26l-0.9-8.78h-17.05c0.26,5.81.51,12.91,0.51,21.18v67.55Zm19.64-61.35a15.174,15.174,0,0,1,.39-3.49,12.328,12.328,0,0,1,11.75-9.94c8.78,0,13.3,7.62,13.3,17.69,0,10.72-5.03,17.83-13.56,17.83a11.885,11.885,0,0,1-11.49-9.3,19.383,19.383,0,0,1-.39-4.13v-8.66Z"/>
    <path id="VCardApp_white" data-name="VCardApp white" class="cls-1" d="M1809.06,708.27l29.32-87.058h-20.92l-11.11,37.2c-2.97,9.946-5.68,20.279-7.88,30.741h-0.39c-2.06-10.85-4.78-20.8-7.75-31.128l-10.59-36.813h-21.57l27.9,87.058h22.99Zm99.85-17.825a49.255,49.255,0,0,1-16.41,2.842c-17.56,0-27.9-10.979-27.9-28.417,0-19.375,12.14-28.8,27.77-28.8a42.559,42.559,0,0,1,16.54,3.229l4-15.629c-3.49-1.808-11.24-3.745-21.44-3.745-26.35,0-47.53,16.4-47.53,46.112,0,24.8,15.5,43.658,45.59,43.658,10.59,0,18.73-2.067,22.35-3.875Zm67.94-19.5c0-14.854-6.72-27.254-27.77-27.254-11.5,0-20.15,3.1-24.55,5.554l3.62,12.658a35.522,35.522,0,0,1,17.44-4.779c9.69,0,11.49,4.779,11.49,8.138v0.9c-22.34-.129-37.07,7.75-37.07,24.154,0,10.075,7.62,19.375,20.41,19.375,7.49,0,13.95-2.713,18.08-7.75h0.39l1.16,6.329h17.7a97.432,97.432,0,0,1-.9-15.371V670.941Zm-19.12,14.337a14,14,0,0,1-.39,3.359,10.717,10.717,0,0,1-10.2,7.233c-4.39,0-7.75-2.454-7.75-7.492,0-7.62,8.01-10.075,18.34-9.945v6.845Zm35.91,22.992h19.63V676.237a23.014,23.014,0,0,1,.39-4.392c1.29-6.071,6.2-9.946,13.43-9.946a19.742,19.742,0,0,1,5.3.646v-18.6a20.316,20.316,0,0,0-4.14-.258c-6.07,0-13.82,3.875-17.05,13.046h-0.51l-0.65-11.625h-16.92c0.26,5.425.52,11.5,0.52,20.8V708.27Zm90.93-91.708v34.229h-0.26c-2.84-4.391-8.91-7.1-16.66-7.1-15.11,0-28.42,12.271-28.29,33.583,0,19.633,12.02,32.421,27,32.421,8.14,0,15.76-3.617,19.76-10.721h0.26l0.9,9.3h17.44c-0.26-4.263-.52-11.754-0.52-18.858v-72.85h-19.63Zm0,63.55a16.616,16.616,0,0,1-.52,4.521,11.489,11.489,0,0,1-11.36,9.429c-8.14,0-13.44-6.717-13.44-17.438,0-9.945,4.65-17.954,13.57-17.954,6.07,0,10.33,4.392,11.49,9.688a31.462,31.462,0,0,1,.26,3.487v8.267Zm82.54,5.812,6.71,22.346h21.19l-27-87.058h-25.83l-26.61,87.058h20.41l6.2-22.346h24.93ZM2145.02,671.2l5.17-18.47c1.42-5.038,2.71-11.625,4-16.792h0.26c1.29,5.167,2.84,11.625,4.39,16.792l5.43,18.47h-19.25Zm61.48,62.646h19.64V702.457h0.25c2.85,4.134,8.79,7.234,16.41,7.234,14.08,0,28.67-10.85,28.67-33.842,0-20.149-12.4-32.162-26.22-32.162-9.17,0-16.4,3.488-21.05,10.2h-0.26l-0.9-8.783h-17.05c0.25,5.812.51,12.917,0.51,21.183v67.554Zm19.64-61.354a15.1,15.1,0,0,1,.38-3.487,12.342,12.342,0,0,1,11.76-9.946c8.78,0,13.3,7.621,13.3,17.7,0,10.721-5.04,17.825-13.56,17.825a11.9,11.9,0,0,1-11.5-9.3,19.474,19.474,0,0,1-.38-4.133v-8.654Zm58.89,61.354h19.64V702.457h0.26c2.84,4.134,8.78,7.234,16.4,7.234,14.08,0,28.68-10.85,28.68-33.842,0-20.149-12.4-32.162-26.23-32.162-9.17,0-16.4,3.488-21.05,10.2h-0.26l-0.9-8.783h-17.05c0.26,5.812.51,12.917,0.51,21.183v67.554Zm19.64-61.354a15.092,15.092,0,0,1,.39-3.487,12.331,12.331,0,0,1,11.75-9.946c8.78,0,13.3,7.621,13.3,17.7,0,10.721-5.03,17.825-13.56,17.825a11.879,11.879,0,0,1-11.49-9.3,19.426,19.426,0,0,1-.39-4.133v-8.654Z"/>
  </g>
</svg>
