<svg xmlns="http://www.w3.org/2000/svg" xmlns:xlink="http://www.w3.org/1999/xlink" width="884" height="663" viewBox="67.096 -85.928 4239.808 3179.856">
  <metadata><?xpacket begin="﻿" id="W5M0MpCehiHzreSzNTczkc9d"?>
<x:xmpmeta xmlns:x="adobe:ns:meta/" x:xmptk="Adobe XMP Core 5.6-c142 79.160924, 2017/07/13-01:06:39        ">
   <rdf:RDF xmlns:rdf="http://www.w3.org/1999/02/22-rdf-syntax-ns#">
      <rdf:Description rdf:about=""/>
   </rdf:RDF>
</x:xmpmeta>
                                                                                                    
                                                                                                    
                                                                                                    
                                                                                                    
                                                                                                    
                                                                                                    
                                                                                                    
                                                                                                    
                                                                                                    
                                                                                                    
                                                                                                    
                                                                                                    
                                                                                                    
                                                                                                    
                                                                                                    
                                                                                                    
                                                                                                    
                                                                                                    
                                                                                                    
                                                                                                    
                           
<?xpacket end="w"?></metadata>
<defs>
    <style>
      .cls-1, .cls-2 {
        fill: #fff;
      }

      .cls-2, .cls-3 {
        fill-rule: evenodd;
      }

      .cls-3 {
        fill: #1454b5;
      }
    </style>
    <clipPath id="clip-path">
      <rect width="4374" height="3008"/>
    </clipPath>
  </defs>
  <g clip-path="url(#clip-path)">
    <rect id="Rounded_Rectangle_1" data-name="Rounded Rectangle 1" class="cls-1" x="1495" y="363" width="1117" height="593" rx="100" ry="100"/>
    <path id="line" class="cls-2" d="M2059,956h-14v819h14V956Z"/>
    <rect id="Rounded_Rectangle_1_copy" data-name="Rounded Rectangle 1 copy" class="cls-1" x="1495" y="1775" width="1117" height="593" rx="100" ry="100"/>
    <path id="VCardCmp" class="cls-3" d="M1795.95,2118.27l29.32-87.06h-20.92l-11.11,37.2c-2.97,9.95-5.68,20.28-7.88,30.74h-0.39c-2.06-10.85-4.78-20.79-7.75-31.13l-10.59-36.81h-21.57l27.9,87.06h22.99Zm99.85-17.83a48.99,48.99,0,0,1-16.41,2.85c-17.56,0-27.9-10.98-27.9-28.42,0-19.37,12.14-28.8,27.77-28.8a42.539,42.539,0,0,1,16.54,3.23l4-15.63c-3.49-1.81-11.24-3.75-21.44-3.75-26.35,0-47.53,16.4-47.53,46.11,0,24.8,15.5,43.66,45.59,43.66,10.59,0,18.73-2.07,22.35-3.87Zm67.94-19.5c0-14.85-6.72-27.25-27.77-27.25-11.5,0-20.15,3.1-24.55,5.55l3.62,12.66a35.554,35.554,0,0,1,17.44-4.78c9.69,0,11.49,4.78,11.49,8.14v0.9c-22.34-.13-37.07,7.75-37.07,24.16,0,10.07,7.62,19.37,20.41,19.37,7.49,0,13.95-2.71,18.09-7.75h0.38l1.17,6.33h17.69a98.678,98.678,0,0,1-.9-15.37v-21.96Zm-19.12,14.34a14.062,14.062,0,0,1-.39,3.36,10.72,10.72,0,0,1-10.2,7.23c-4.39,0-7.75-2.45-7.75-7.49,0-7.62,8.01-10.08,18.34-9.95v6.85Zm35.91,22.99h19.63v-32.03a22.977,22.977,0,0,1,.39-4.39c1.29-6.08,6.2-9.95,13.43-9.95a19.6,19.6,0,0,1,5.3.65v-18.6a20.111,20.111,0,0,0-4.13-.26c-6.08,0-13.83,3.87-17.05,13.04h-0.52l-0.65-11.62h-16.92c0.26,5.42.52,11.49,0.52,20.79v42.37Zm90.93-91.71v34.23h-0.26c-2.84-4.39-8.91-7.1-16.66-7.1-15.11,0-28.42,12.27-28.29,33.58,0,19.63,12.02,32.42,27,32.42,8.14,0,15.76-3.62,19.76-10.72h0.26l0.9,9.3h17.44c-0.26-4.26-.52-11.75-0.52-18.86v-72.85h-19.63Zm0,63.55a16.6,16.6,0,0,1-.52,4.52,11.484,11.484,0,0,1-11.36,9.43c-8.14,0-13.44-6.71-13.44-17.44,0-9.94,4.65-17.95,13.57-17.95,6.07,0,10.33,4.39,11.49,9.69a31.336,31.336,0,0,1,.26,3.49v8.26Zm98.3,10.33a48.99,48.99,0,0,1-16.41,2.85c-17.56,0-27.9-10.98-27.9-28.42,0-19.37,12.14-28.8,27.77-28.8a42.539,42.539,0,0,1,16.54,3.23l4-15.63c-3.49-1.81-11.24-3.75-21.44-3.75-26.35,0-47.53,16.4-47.53,46.11,0,24.8,15.5,43.66,45.59,43.66,10.59,0,18.73-2.07,22.35-3.87Zm16.01,17.83h19.12v-36.81a13.138,13.138,0,0,1,.77-4.91c1.17-3.23,4.14-7.1,9.17-7.1,6.2,0,9.05,5.42,9.05,13.43v35.39h19.11v-36.94a16.342,16.342,0,0,1,.78-5.04,9.608,9.608,0,0,1,9.04-6.84c6.33,0,9.3,5.29,9.3,14.46v34.36h19.11v-37.2c0-18.86-9.17-27.38-21.31-27.38a22.755,22.755,0,0,0-12.01,3.1,26.667,26.667,0,0,0-8.14,7.62h-0.26c-2.71-6.59-9.17-10.72-17.3-10.72-10.85,0-16.41,5.94-19.12,9.94h-0.39l-0.9-8.52h-16.54c0.26,5.55.52,12.27,0.52,20.15v43.01Zm112.37,25.57h19.64v-31.38h0.26c2.84,4.13,8.78,7.23,16.4,7.23,14.08,0,28.67-10.85,28.67-33.84,0-20.15-12.4-32.16-26.22-32.16-9.17,0-16.4,3.48-21.05,10.2h-0.26l-0.9-8.78h-17.05c0.26,5.81.51,12.91,0.51,21.18v67.55Zm19.64-61.35a15.174,15.174,0,0,1,.39-3.49,12.328,12.328,0,0,1,11.75-9.94c8.78,0,13.3,7.62,13.3,17.69,0,10.72-5.03,17.83-13.56,17.83a11.885,11.885,0,0,1-11.49-9.3,19.383,19.383,0,0,1-.39-4.13v-8.66Z"/>
    <path id="VCardApp" class="cls-3" d="M1809.06,708.27l29.32-87.058h-20.92l-11.11,37.2c-2.97,9.946-5.68,20.279-7.88,30.741h-0.39c-2.06-10.85-4.78-20.8-7.75-31.128l-10.59-36.813h-21.57l27.9,87.058h22.99Zm99.85-17.825a49.255,49.255,0,0,1-16.41,2.842c-17.56,0-27.9-10.979-27.9-28.417,0-19.375,12.14-28.8,27.77-28.8a42.559,42.559,0,0,1,16.54,3.229l4-15.629c-3.49-1.808-11.24-3.745-21.44-3.745-26.35,0-47.53,16.4-47.53,46.112,0,24.8,15.5,43.658,45.59,43.658,10.59,0,18.73-2.067,22.35-3.875Zm67.94-19.5c0-14.854-6.72-27.254-27.77-27.254-11.5,0-20.15,3.1-24.55,5.554l3.62,12.658a35.522,35.522,0,0,1,17.44-4.779c9.69,0,11.49,4.779,11.49,8.138v0.9c-22.34-.129-37.07,7.75-37.07,24.154,0,10.075,7.62,19.375,20.41,19.375,7.49,0,13.95-2.713,18.08-7.75h0.39l1.16,6.329h17.7a97.432,97.432,0,0,1-.9-15.371V670.941Zm-19.12,14.337a14,14,0,0,1-.39,3.359,10.717,10.717,0,0,1-10.2,7.233c-4.39,0-7.75-2.454-7.75-7.492,0-7.62,8.01-10.075,18.34-9.945v6.845Zm35.91,22.992h19.63V676.237a23.014,23.014,0,0,1,.39-4.392c1.29-6.071,6.2-9.946,13.43-9.946a19.742,19.742,0,0,1,5.3.646v-18.6a20.316,20.316,0,0,0-4.14-.258c-6.07,0-13.82,3.875-17.05,13.046h-0.51l-0.65-11.625h-16.92c0.26,5.425.52,11.5,0.52,20.8V708.27Zm90.93-91.708v34.229h-0.26c-2.84-4.391-8.91-7.1-16.66-7.1-15.11,0-28.42,12.271-28.29,33.583,0,19.633,12.02,32.421,27,32.421,8.14,0,15.76-3.617,19.76-10.721h0.26l0.9,9.3h17.44c-0.26-4.263-.52-11.754-0.52-18.858v-72.85h-19.63Zm0,63.55a16.616,16.616,0,0,1-.52,4.521,11.489,11.489,0,0,1-11.36,9.429c-8.14,0-13.44-6.717-13.44-17.438,0-9.945,4.65-17.954,13.57-17.954,6.07,0,10.33,4.392,11.49,9.688a31.462,31.462,0,0,1,.26,3.487v8.267Zm82.54,5.812,6.71,22.346h21.19l-27-87.058h-25.83l-26.61,87.058h20.41l6.2-22.346h24.93ZM2145.02,671.2l5.17-18.47c1.42-5.038,2.71-11.625,4-16.792h0.26c1.29,5.167,2.84,11.625,4.39,16.792l5.43,18.47h-19.25Zm61.48,62.646h19.64V702.457h0.25c2.85,4.134,8.79,7.234,16.41,7.234,14.08,0,28.67-10.85,28.67-33.842,0-20.149-12.4-32.162-26.22-32.162-9.17,0-16.4,3.488-21.05,10.2h-0.26l-0.9-8.783h-17.05c0.25,5.812.51,12.917,0.51,21.183v67.554Zm19.64-61.354a15.1,15.1,0,0,1,.38-3.487,12.342,12.342,0,0,1,11.76-9.946c8.78,0,13.3,7.621,13.3,17.7,0,10.721-5.04,17.825-13.56,17.825a11.9,11.9,0,0,1-11.5-9.3,19.474,19.474,0,0,1-.38-4.133v-8.654Zm58.89,61.354h19.64V702.457h0.26c2.84,4.134,8.78,7.234,16.4,7.234,14.08,0,28.68-10.85,28.68-33.842,0-20.149-12.4-32.162-26.23-32.162-9.17,0-16.4,3.488-21.05,10.2h-0.26l-0.9-8.783h-17.05c0.26,5.812.51,12.917,0.51,21.183v67.554Zm19.64-61.354a15.092,15.092,0,0,1,.39-3.487,12.331,12.331,0,0,1,11.75-9.946c8.78,0,13.3,7.621,13.3,17.7,0,10.721-5.03,17.825-13.56,17.825a11.879,11.879,0,0,1-11.49-9.3,19.426,19.426,0,0,1-.39-4.133v-8.654Z"/>
  </g>
</svg>
